<?xml version="1.0" encoding="UTF-8" standalone="no"?>
<!DOCTYPE svg  PUBLIC '-//W3C//DTD SVG 1.1//EN'  'http://www.w3.org/Graphics/SVG/1.1/DTD/svg11.dtd'>
<svg xmlns="http://www.w3.org/2000/svg" xmlns:xlink="http://www.w3.org/1999/xlink" version="1.1">
<defs>
<font id="GothamPro-BoldItalic" horiz-adv-x="500">
<font-face slope="-15" underline-position="-153" font-weight="700" descent="-200" panose-1="2 0 8 3 4 0 0 9 0 4" units-per-em="1000" unicode-range="U+0020-FB04" bbox="-138 -200 1247 932" x-height="536" underline-thickness="20" font-family="GothamPro" ascent="800" font-style="italic" cap-height="700"/>
<missing-glyph d="M250 395l171 255h-340zM451 95v510l-172 -256zM50 95l170 254l-170 256v-510zM81 49h340l-171 255zM0 0v700h500v-700h-500z"/>
<glyph glyph-name="fi" horiz-adv-x="713" unicode="fi" d="M414 0l144 536h152l-144 -536h-152zM23 0l110 406h-64l35 130h63l7 29q45 172 217 172q62 0 104 -15l-33 -126q-33 13 -66 13q-59 0 -75 -58l-4 -15h129l-35 -130h-126l-110 -406h-152zM570 595l37 135h160l-37 -135h-160z"/>
<glyph glyph-name="fl" horiz-adv-x="713" unicode="fl" d="M23 0l110 406h-64l35 130h63l7 29q45 172 217 172q62 0 104 -15l-33 -126q-33 13 -66 13q-59 0 -75 -58l-4 -15h129l-35 -130h-126l-110 -406h-152zM414 0l196 730h152l-196 -730h-152z"/>
<glyph glyph-name="ffi" horiz-adv-x="1124" unicode="ffi" d="M825 0l144 536h152l-144 -536h-152zM23 0l110 406h-64l35 130h63l7 29q45 172 217 172q62 0 104 -15l-33 -126q-33 13 -66 13q-59 0 -75 -58l-4 -15h129l-35 -130h-126l-110 -406h-152zM434 0l110 406h-64l35 130h63l7 29q42 172 217 172q62 0 104 -15l-33 -126 q-32 13 -66 13q-60 0 -75 -58l-4 -15h129l-35 -130h-126l-110 -406h-152zM981 595l37 135h160l-37 -135h-160z"/>
<glyph glyph-name="ffl" horiz-adv-x="1124" unicode="ffl" d="M825 0l196 730h152l-196 -730h-152zM23 0l110 406h-64l35 130h63l7 29q45 172 217 172q62 0 104 -15l-33 -126q-33 13 -66 13q-59 0 -75 -58l-4 -15h129l-35 -130h-126l-110 -406h-152zM434 0l110 406h-64l35 130h63l7 29q42 172 217 172q62 0 104 -15l-33 -126 q-32 13 -66 13q-60 0 -75 -58l-4 -15h129l-35 -130h-126l-110 -406h-152z"/>
<glyph glyph-name=".notdef" d="M250 395l171 255h-340zM451 95v510l-172 -256zM50 95l170 254l-170 256v-510zM81 49h340l-171 255zM0 0v700h500v-700h-500z"/>
<glyph glyph-name=".null" horiz-adv-x="0"/>
<glyph glyph-name="nonmarkingreturn" horiz-adv-x="333"/>
<glyph glyph-name="space" horiz-adv-x="300" unicode=" "/>
<glyph glyph-name="exclam" horiz-adv-x="325" unicode="!" d="M9 0l43 160h162l-43 -160h-162zM112 238l71 442l6 20h178l-6 -20l-165 -442h-84z"/>
<glyph glyph-name="quotedbl" horiz-adv-x="528" unicode='&quot;' d="M99 381l84 319h170l-2 -5l-173 -314h-79zM341 381l84 319h170l-2 -5l-173 -314h-79z"/>
<glyph glyph-name="numbersign" horiz-adv-x="691" unicode="#" d="M269 278h145l51 148h-145zM40 0l52 150h-81l34 128h92l51 148h-93l34 128h104l51 146h132l-51 -146h145l51 146h132l-51 -146h82l-34 -128h-93l-51 -148h94l-34 -128h-105l-52 -150h-132l52 150h-145l-52 -150h-132z"/>
<glyph glyph-name="dollar" horiz-adv-x="636" unicode="$" d="M330 132q89 8 89 72q0 35 -49 58zM329 439l39 129q-46 -3 -69 -23t-23 -49q0 -18 11.5 -31t41.5 -26zM161 -98l33 108q-128 26 -199 119l112 94q56 -64 130 -83l47 155q-82 31 -124 71t-42 114q0 94 79.5 157t196.5 63h8l18 58h104l-21 -71q88 -24 154 -91l-104 -102 q-47 44 -92 61l-45 -149q80 -30 120.5 -72t40.5 -114q0 -97 -80.5 -158.5t-200.5 -61.5h-1l-30 -98h-104z"/>
<glyph glyph-name="percent" horiz-adv-x="880" unicode="%" d="M651 79q39 0 64.5 37t25.5 80q0 33 -16.5 52t-45.5 19q-39 0 -64.5 -37t-25.5 -80q0 -33 16.5 -52t45.5 -19zM244 433q39 0 64.5 37t25.5 80q0 33 -16.5 52t-45.5 19q-39 0 -64.5 -37t-25.5 -80q0 -33 16.5 -52t45.5 -19zM645 -8q-69 0 -111.5 42.5t-42.5 111.5 q0 81 55 144.5t139 63.5q69 0 111.5 -42.5t42.5 -111.5q0 -81 -55 -144.5t-139 -63.5zM60 0l673 700h130l-673 -700h-130zM238 346q-69 0 -111.5 42.5t-42.5 111.5q0 81 55 144.5t139 63.5q69 0 111.5 -42.5t42.5 -111.5q0 -81 -55 -144.5t-139 -63.5z"/>
<glyph glyph-name="ampersand" horiz-adv-x="696" unicode="&amp;" d="M262 116q59 0 128 43l-108 149q-57 -22 -85.5 -54t-28.5 -67q0 -31 24.5 -51t69.5 -20zM348 436q66 24 90.5 46t24.5 53q0 22 -16.5 39.5t-46.5 17.5q-36 0 -58.5 -23t-22.5 -54q0 -36 29 -79zM515 -14l-56 77q-105 -73 -214 -73q-99 0 -160.5 50.5t-61.5 137.5 q0 68 48.5 126.5t149.5 91.5q-37 64 -37 121q0 80 62 137.5t161 57.5q86 0 139.5 -47.5t53.5 -120.5q0 -130 -189 -194l79 -106q43 45 85 113l93 -65q-52 -79 -109 -141l69 -93z"/>
<glyph glyph-name="quotesingle" horiz-adv-x="286" unicode="&apos;" d="M99 381l84 319h170l-2 -5l-173 -314h-79z"/>
<glyph glyph-name="parenleft" horiz-adv-x="445" unicode="(" d="M241 -143q-183 147 -183 352q0 164 103.5 296.5t291.5 207.5l56 -113q-143 -66 -220 -169t-77 -217q0 -131 124 -260z"/>
<glyph glyph-name="parenright" horiz-adv-x="445" unicode=")" d="M2 -139l-56 113q143 66 220 169t77 217q0 131 -124 260l95 97q183 -147 183 -352q0 -164 -103.5 -296.5t-291.5 -207.5z"/>
<glyph glyph-name="asterisk" horiz-adv-x="430" unicode="*" d="M278 367l-79 21l46 112l-113 -46l-22 80l121 16l-96 75l59 59l74 -97l16 120l79 -21l-46 -112l113 46l22 -80l-121 -16l96 -75l-59 -59l-74 97z"/>
<glyph glyph-name="plus" horiz-adv-x="649" unicode="+" d="M210 103l48 180h-181l37 138h181l48 180h142l-48 -180h181l-37 -138h-181l-48 -180h-142z"/>
<glyph glyph-name="comma" horiz-adv-x="319" unicode="," d="M-51 -162l-10 63q114 10 130 99h-62l43 160h162l-36 -135q-26 -97 -81 -141t-146 -46z"/>
<glyph glyph-name="hyphen" horiz-adv-x="412" unicode="-" d="M44 237l39 146h308l-39 -146h-308z"/>
<glyph glyph-name="period" horiz-adv-x="319" unicode="." d="M7 0l43 160h162l-43 -160h-162z"/>
<glyph glyph-name="slash" horiz-adv-x="530" unicode="/" d="M-135 -128l681 926h143l-681 -926h-143z"/>
<glyph glyph-name="zero" horiz-adv-x="730" unicode="0" d="M347 127q88 0 146.5 94.5t58.5 200.5q0 73 -34 112t-93 39q-88 0 -146.5 -94.5t-58.5 -200.5q0 -73 34 -112t93 -39zM335 -12q-123 0 -198 79.5t-75 211.5q0 78 26 154t72 138.5t119 101.5t158 39q123 0 198 -79.5t75 -211.5q0 -78 -26 -154t-72 -138.5t-119 -101.5 t-158 -39z"/>
<glyph glyph-name="one" horiz-adv-x="434" unicode="1" d="M95 0l145 542l-127 -29l-2 131l220 61h105l-189 -705h-152z"/>
<glyph glyph-name="two" horiz-adv-x="614" unicode="2" d="M-30 0l34 126l354 244q102 70 102 130q0 34 -23.5 53t-64.5 19q-77 0 -167 -87l-94 98q112 127 268 127q108 0 173.5 -54t65.5 -139q0 -66 -36.5 -119t-128.5 -117l-216 -148h294l-36 -133h-525z"/>
<glyph glyph-name="three" horiz-adv-x="604" unicode="3" d="M242 -12q-182 0 -259 133l114 84q58 -79 152 -79q55 0 93.5 29.5t38.5 68.5q0 40 -36 61.5t-101 21.5h-43l-6 96l206 165h-265l36 132h473l-32 -116l-226 -172q149 -36 149 -174q0 -106 -84.5 -178t-209.5 -72z"/>
<glyph glyph-name="four" horiz-adv-x="659" unicode="4" d="M211 276h178l60 224zM315 0l40 151h-324l-15 114l483 440h150l-115 -429h94l-34 -125h-94l-40 -151h-145z"/>
<glyph glyph-name="five" horiz-adv-x="610" unicode="5" d="M250 -11q-75 0 -149 36t-110 89l108 91q71 -77 164 -77q61 0 101.5 32t40.5 77q0 40 -33 65t-97 25q-42 0 -94 -22l-78 63l109 332h424l-37 -135h-285l-40 -119q37 8 71 8q97 0 157.5 -54.5t60.5 -145.5q0 -108 -87 -186.5t-226 -78.5z"/>
<glyph glyph-name="six" horiz-adv-x="643" unicode="6" d="M313 118q58 0 96.5 37t38.5 84q0 42 -29 67t-76 25q-61 0 -99.5 -35t-38.5 -85q0 -37 26 -63q30 -30 82 -30zM313 -12q-118 0 -182 64q-72 72 -72 197q0 102 35.5 197t101.5 161q105 105 254 105q128 0 216 -81l-89 -111q-61 54 -140 54q-81 0 -136 -55q-49 -49 -72 -123 q24 24 69 41.5t92 17.5q91 0 152 -52t61 -143q0 -108 -85 -190t-205 -82z"/>
<glyph glyph-name="seven" horiz-adv-x="609" unicode="7" d="M9 0l435 567h-322l36 133h504l-32 -116l-440 -584h-181z"/>
<glyph glyph-name="eight" horiz-adv-x="662" unicode="8" d="M308 114q57 0 95 25.5t38 67.5q0 37 -35 61t-92 24q-58 0 -95 -26t-37 -66q0 -37 35 -61.5t91 -24.5zM378 416q49 0 82 25.5t33 63.5q0 34 -29.5 56.5t-81.5 22.5q-48 0 -81 -25.5t-33 -62.5q0 -34 30.5 -57t79.5 -23zM300 -10q-111 0 -189.5 55t-78.5 143 q0 76 48.5 123.5t130.5 67.5q-41 21 -63 57t-22 78q0 76 70 136t193 60q109 0 178.5 -53t69.5 -135q0 -66 -40.5 -112t-112.5 -63q49 -19 78 -57t29 -92q0 -84 -80 -146t-211 -62z"/>
<glyph glyph-name="nine" horiz-adv-x="643" unicode="9" d="M346 362q60 0 98 36t38 88q0 41 -25 66q-30 30 -82 30q-60 0 -98 -37t-38 -89q0 -45 29.5 -69.5t77.5 -24.5zM243 -12q-130 0 -230 89l90 111q73 -62 148 -62q80 0 137 57q46 46 68 113q-24 -24 -68 -41t-91 -17q-92 0 -152.5 52t-60.5 146q0 115 84.5 195.5t205.5 80.5 q53 0 103 -16.5t80 -46.5q72 -72 72 -212q0 -96 -36.5 -187t-103.5 -158q-104 -104 -246 -104z"/>
<glyph glyph-name="colon" horiz-adv-x="319" unicode=":" d="M7 0l43 160h162l-43 -160h-162zM108 376l43 160h162l-43 -160h-162z"/>
<glyph glyph-name="semicolon" horiz-adv-x="319" unicode=";" d="M-51 -162l-10 63q114 10 130 99h-62l43 160h162l-36 -135q-26 -97 -81 -141t-146 -46zM108 376l43 160h162l-43 -160h-162z"/>
<glyph glyph-name="less" horiz-adv-x="640" unicode="&lt;" d="M499 71l-427 212l37 138l541 212l-41 -148l-375 -139l301 -139z"/>
<glyph glyph-name="equal" horiz-adv-x="640" unicode="=" d="M54 153l37 138h474l-37 -138h-474zM124 413l37 138h474l-37 -138h-474z"/>
<glyph glyph-name="greater" horiz-adv-x="640" unicode="&gt;" d="M32 71l41 148l375 139l-301 139l36 136l427 -212l-37 -138z"/>
<glyph glyph-name="question" horiz-adv-x="544" unicode="?" d="M86 0l43 160h162l-43 -160h-162zM177 238l20 162l6 5q200 14 200 102q0 62 -83 62q-74 0 -143 -59l-80 101q47 48 111.5 73t132.5 25q102 0 162.5 -53.5t60.5 -128.5q0 -88 -65 -144t-191 -75l-29 -70h-102z"/>
<glyph glyph-name="at" horiz-adv-x="980" unicode="@" d="M461 165q52 0 95 47.5t43 111.5q0 37 -24 60t-63 23q-52 0 -93.5 -46t-41.5 -110q0 -40 22.5 -63t61.5 -23zM471 -155q-183 0 -299.5 108.5t-116.5 279.5q0 127 64 238t177 177.5t246 66.5q182 0 293.5 -101t111.5 -243q0 -149 -69.5 -227.5t-167.5 -78.5 q-50 0 -86.5 20.5t-52.5 56.5q-76 -78 -160 -78q-69 0 -115 45t-46 124q0 117 77 196.5t174 79.5q88 0 131 -70l19 62l111 -31l-79 -249q-8 -27 -8 -46q0 -31 17.5 -47t48.5 -16q60 0 112 70.5t52 188.5q0 126 -100 215t-263 89q-123 0 -226 -61.5t-161.5 -163t-58.5 -217.5 q0 -154 104.5 -251.5t270.5 -97.5q105 0 205 45l16 -35q-105 -49 -221 -49z"/>
<glyph glyph-name="A" horiz-adv-x="765" unicode="A" d="M307 293h186l-32 231zM-57 0l489 705h148l111 -705h-158l-22 157h-296l-106 -157h-166z"/>
<glyph glyph-name="B" horiz-adv-x="717" unicode="B" d="M198 135h181q58 0 91.5 23.5t33.5 64.5q0 31 -24.5 48.5t-71.5 17.5h-169zM274 417h155q126 0 126 85q0 29 -24 46t-73 17h-145zM12 0l188 700h272q118 0 177.5 -48.5t59.5 -123.5q0 -68 -40.5 -113t-109.5 -60q98 -46 98 -142t-79.5 -154.5t-221.5 -58.5h-344z"/>
<glyph glyph-name="C" horiz-adv-x="726" unicode="C" d="M397 -12q-145 0 -237.5 83.5t-92.5 221.5q0 169 125.5 294t300.5 125q189 0 280 -149l-127 -89q-34 48 -73.5 72t-98.5 24q-97 0 -172 -80.5t-75 -190.5q0 -75 48 -122t123 -47q47 0 83.5 17t80.5 52l100 -104q-116 -107 -265 -107z"/>
<glyph glyph-name="D" horiz-adv-x="777" unicode="D" d="M203 139h87q149 0 234 85q70 70 70 175q0 70 -41 111q-51 51 -161 51h-75zM12 0l188 700h204q184 0 274 -90q76 -76 76 -205q0 -161 -115 -276q-129 -129 -367 -129h-260z"/>
<glyph glyph-name="E" horiz-adv-x="665" unicode="E" d="M12 0l188 700h523l-37 -137h-370l-38 -143h325l-37 -135h-325l-40 -148h376l-37 -137h-528z"/>
<glyph glyph-name="F" horiz-adv-x="663" unicode="F" d="M12 0l188 700h533l-38 -140h-379l-40 -149h334l-37 -140h-334l-73 -271h-154z"/>
<glyph glyph-name="G" horiz-adv-x="780" unicode="G" d="M395 -12q-62 0 -119.5 18.5t-105 54.5t-76 96t-28.5 135q0 109 56 205t157.5 155.5t223.5 59.5q193 0 286 -121l-114 -101q-74 81 -184 81q-111 0 -188 -81.5t-77 -192.5q0 -79 51 -123.5t128 -44.5q65 0 125 27l33 114h-155l36 133h304l-99 -349q-117 -66 -254 -66z"/>
<glyph glyph-name="H" horiz-adv-x="756" unicode="H" d="M12 0l188 700h154l-74 -277h280l74 277h154l-188 -700h-154l76 281h-280l-76 -281h-154z"/>
<glyph glyph-name="I" horiz-adv-x="336" unicode="I" d="M19 0l188 700h154l-188 -700h-154z"/>
<glyph glyph-name="J" horiz-adv-x="575" unicode="J" d="M188 -10q-69 0 -129.5 30t-97.5 87l109 95q55 -69 126 -69q55 0 94 39q17 17 30 46t31 97l103 385h158l-113 -422q-22 -85 -43.5 -130.5t-58.5 -82.5q-75 -75 -209 -75z"/>
<glyph glyph-name="K" horiz-adv-x="727" unicode="K" d="M12 0l188 700h154l-83 -310l346 310h208l-341 -293l165 -407h-169l-118 315l-145 -124l-51 -191h-154z"/>
<glyph glyph-name="L" horiz-adv-x="626" unicode="L" d="M12 0l188 700h154l-150 -560h349l-38 -140h-503z"/>
<glyph glyph-name="M" horiz-adv-x="868" unicode="M" d="M12 0l188 700h160l101 -296l261 296h178l-188 -700h-156l122 457l-274 -299h-4l-112 296l-122 -454h-154z"/>
<glyph glyph-name="N" horiz-adv-x="786" unicode="N" d="M12 0l188 700h142l204 -445l120 445h152l-188 -700h-131l-212 459l-123 -459h-152z"/>
<glyph glyph-name="O" horiz-adv-x="832" unicode="O" d="M405 130q105 0 174 82.5t69 179.5q0 80 -47 129t-131 49q-105 0 -174 -82.5t-69 -179.5q0 -80 47 -129t131 -49zM387 -12q-143 0 -231.5 88t-88.5 222q0 105 52 199.5t150 154.5t219 60q143 0 231.5 -88t88.5 -222q0 -105 -52 -199.5t-150 -154.5t-219 -60z"/>
<glyph glyph-name="P" horiz-adv-x="679" unicode="P" d="M259 347h105q78 0 124.5 33.5t46.5 91.5q0 35 -23 58q-31 31 -96 31h-100zM12 0l188 700h222q149 0 220 -71q54 -54 54 -144q0 -127 -96 -200t-244 -73h-133l-57 -212h-154z"/>
<glyph glyph-name="Q" horiz-adv-x="832" unicode="Q" d="M405 130q45 0 88 18l-90 122l127 85l71 -114q47 72 47 151q0 80 -47 129t-131 49q-105 0 -174 -82.5t-69 -179.5q0 -80 47 -129t131 -49zM618 -44l-46 74q-84 -42 -185 -42q-143 0 -231.5 88t-88.5 222q0 105 52 199.5t150 154.5t219 60q143 0 231.5 -88t88.5 -222 q0 -166 -119 -288l56 -74z"/>
<glyph glyph-name="R" horiz-adv-x="727" unicode="R" d="M263 360h137q96 0 141 45q29 29 29 71q0 34 -22 56q-29 29 -102 29h-129zM12 0l188 700h255q152 0 222 -70q54 -54 54 -141q0 -102 -64 -166q-60 -60 -162 -84l119 -239h-175l-108 224h-115l-60 -224h-154z"/>
<glyph glyph-name="S" horiz-adv-x="636" unicode="S" d="M295 -10q-205 0 -305 129l116 98q84 -92 196 -92q47 0 77 20t30 53q0 26 -24.5 45t-94.5 47q-81 33 -126.5 76t-45.5 113q0 104 81 167.5t197 63.5q165 0 262 -104l-106 -106q-42 39 -80.5 57t-87.5 18q-46 0 -74 -21.5t-28 -49.5q0 -27 24 -44t99 -48q82 -33 125 -75.5 t43 -113.5q0 -106 -81.5 -169.5t-196.5 -63.5z"/>
<glyph glyph-name="T" horiz-adv-x="620" unicode="T" d="M159 0l150 558h-213l38 142h580l-38 -142h-213l-150 -558h-154z"/>
<glyph glyph-name="U" horiz-adv-x="764" unicode="U" d="M343 -11q-122 0 -192 62.5t-70 173.5q0 52 17 112l97 363h154l-101 -377q-11 -38 -11 -76q0 -53 32 -84.5t90 -31.5q68 0 114 44q46 46 68 130l106 395h154l-112 -417q-36 -136 -108 -208q-86 -86 -238 -86z"/>
<glyph glyph-name="V" horiz-adv-x="724" unicode="V" d="M216 -5l-91 705h165l48 -488l310 488h173l-469 -705h-136z"/>
<glyph glyph-name="W" horiz-adv-x="1108" unicode="W" d="M180 -5l-50 705h160l18 -474l282 476h132l32 -476l272 474h174l-428 -705h-143l-34 449l-274 -449h-141z"/>
<glyph glyph-name="X" horiz-adv-x="700" unicode="X" d="M-51 0l338 363l-150 337h173l88 -225l196 225h197l-329 -354l155 -346h-173l-94 235l-204 -235h-197z"/>
<glyph glyph-name="Y" horiz-adv-x="650" unicode="Y" d="M169 0l74 276l-145 424h171l82 -290l240 290h186l-383 -438l-71 -262h-154z"/>
<glyph glyph-name="Z" horiz-adv-x="689" unicode="Z" d="M-19 0l31 117l492 448h-360l37 135h568l-32 -117l-492 -448h375l-36 -135h-583z"/>
<glyph glyph-name="bracketleft" horiz-adv-x="465" unicode="[" d="M-10 -130l223 830h323l-32 -119h-177l-159 -592h177l-32 -119h-323z"/>
<glyph glyph-name="backslash" horiz-adv-x="530" unicode="\" d="M326 -128l-208 926h126l208 -926h-126z"/>
<glyph glyph-name="bracketright" horiz-adv-x="465" unicode="]" d="M-62 -130l32 119h177l159 592h-177l32 119h323l-223 -830h-323z"/>
<glyph glyph-name="asciicircum" d="M84 493l204 207h104l92 -207h-99l-60 117l-122 -117h-119z" unicode="^"/>
<glyph glyph-name="underscore" horiz-adv-x="600" unicode="_" d="M-115 -160l31 116h604l-31 -116h-604z"/>
<glyph glyph-name="grave" d="M346 595l-95 120l134 57l65 -177h-104z" unicode="`"/>
<glyph glyph-name="a" horiz-adv-x="588" unicode="a" d="M228 94q46 0 84 31.5t51 76.5l4 14q-49 19 -100 19q-48 0 -78.5 -23t-30.5 -61q0 -25 19 -41t51 -16zM163 -10q-69 0 -112.5 40.5t-43.5 103.5q0 90 65 141.5t166 51.5q74 0 151 -24l2 7q6 24 6 40q0 63 -101 63q-72 0 -143 -29l-24 120q91 38 199 38q107 0 162 -42.5 t55 -122.5q0 -35 -12 -81l-79 -296h-147l16 62q-67 -72 -160 -72z"/>
<glyph glyph-name="b" horiz-adv-x="674" unicode="b" d="M317 118q63 0 111 54.5t48 133.5q0 52 -30.5 82t-81.5 30q-64 0 -113 -55t-49 -131q0 -51 32 -82.5t83 -31.5zM337 -10q-110 0 -168 88l-21 -78h-151l194 730h152l-67 -252q73 68 151 68q90 0 148 -62t58 -168q0 -139 -89.5 -232.5t-206.5 -93.5z"/>
<glyph glyph-name="c" horiz-adv-x="560" unicode="c" d="M292 -12q-110 0 -180 66.5t-70 175.5q0 131 93.5 223.5t222.5 92.5q152 0 220 -118l-116 -82q-23 35 -48.5 52.5t-67.5 17.5q-60 0 -107 -56t-47 -130q0 -51 30 -82t75 -31q59 0 121 53l78 -99q-46 -41 -93 -62t-111 -21z"/>
<glyph glyph-name="d" horiz-adv-x="674" unicode="d" d="M309 118q64 0 113 55t49 131q0 51 -32 82.5t-83 31.5q-63 0 -111 -54.5t-48 -133.5q0 -52 30.5 -82t81.5 -30zM246 -10q-90 0 -148 62t-58 168q0 139 89.5 232.5t206.5 93.5q110 0 168 -88l72 272h152l-195 -730h-152l16 58q-73 -68 -151 -68z"/>
<glyph glyph-name="e" horiz-adv-x="607" unicode="e" d="M197 310h233q5 17 5 35q0 35 -22 57t-66 22q-51 0 -91 -31t-59 -83zM184 215q8 -105 122 -105q58 0 119 43l70 -94q-85 -71 -206 -71q-116 0 -182 63.5t-66 174.5q0 79 38.5 151.5t113 120.5t166.5 48q102 0 160.5 -58.5t58.5 -150.5q0 -57 -27 -122h-367z"/>
<glyph glyph-name="f" horiz-adv-x="411" unicode="f" d="M23 0l110 406h-64l35 130h63l7 29q45 172 217 172q62 0 104 -15l-33 -126q-33 13 -66 13q-59 0 -75 -58l-4 -15h129l-35 -130h-126l-110 -406h-152z"/>
<glyph glyph-name="g" horiz-adv-x="671" unicode="g" d="M302 165q63 0 110.5 46.5t47.5 109.5q0 45 -29 71.5t-77 26.5q-63 0 -108.5 -48t-45.5 -111q0 -46 28 -70.5t74 -24.5zM250 -162q-172 0 -283 75l80 104q89 -59 193 -59q73 0 116 43q30 30 49 96l5 18q-43 -38 -81 -54.5t-87 -16.5q-82 0 -140.5 50t-58.5 137 q0 131 89.5 223t203.5 92q110 0 163 -93l22 83h152l-115 -431q-21 -80 -41 -120t-53 -73q-74 -74 -214 -74z"/>
<glyph glyph-name="h" horiz-adv-x="622" unicode="h" d="M-3 0l194 730h152l-66 -250q74 66 146 66t115 -42t43 -114q0 -34 -18 -102l-77 -288h-152l79 294q7 26 7 48q0 66 -74 66q-44 0 -73.5 -28.5t-42.5 -78.5l-81 -301h-152z"/>
<glyph glyph-name="i" horiz-adv-x="302" unicode="i" d="M3 0l144 536h152l-144 -536h-152zM159 595l37 135h160l-37 -135h-160z"/>
<glyph glyph-name="j" horiz-adv-x="301" unicode="j" d="M-46 -163q-46 0 -83 8l32 119q20 -5 37 -5q25 0 44 19.5t28 53.5l135 504h152l-140 -523q-48 -176 -205 -176zM159 595l36 135h160l-36 -135h-160z"/>
<glyph glyph-name="k" horiz-adv-x="591" unicode="k" d="M-3 0l196 730h152l-102 -378l217 184h198l-259 -209l117 -327h-170l-76 227l-77 -62l-44 -165h-152z"/>
<glyph glyph-name="l" horiz-adv-x="302" unicode="l" d="M3 0l196 730h152l-196 -730h-152z"/>
<glyph glyph-name="m" horiz-adv-x="949" unicode="m" d="M-3 0l143 536h152l-15 -56q74 66 142 66q107 0 142 -97q80 97 192 97q72 0 113.5 -41.5t41.5 -114.5q0 -34 -18 -102l-77 -288h-152l79 294q7 26 7 48q0 66 -71 66q-86 0 -114 -107l-81 -301h-152l79 294q7 26 7 48q0 66 -71 66q-86 0 -114 -107l-81 -301h-152z"/>
<glyph glyph-name="n" horiz-adv-x="619" unicode="n" d="M-3 0l143 536h152l-15 -56q74 66 146 66t115 -42t43 -114q0 -34 -18 -102l-77 -288h-152l79 294q7 26 7 48q0 66 -74 66q-44 0 -73.5 -28.5t-42.5 -78.5l-81 -301h-152z"/>
<glyph glyph-name="o" horiz-adv-x="652" unicode="o" d="M307 118q66 0 110 57t44 119q0 58 -31.5 90t-84.5 32q-66 0 -110 -57t-44 -119q0 -58 31.5 -90t84.5 -32zM300 -12q-117 0 -187.5 69.5t-70.5 178.5q0 122 91.5 216t218.5 94q117 0 187.5 -69.5t70.5 -178.5q0 -122 -91.5 -216t-218.5 -94z"/>
<glyph glyph-name="p" horiz-adv-x="674" unicode="p" d="M317 118q63 0 111 54.5t48 133.5q0 52 -30.5 82t-81.5 30q-64 0 -113 -55t-49 -131q0 -51 32 -82.5t83 -31.5zM-46 -160l186 696h152l-16 -58q73 68 151 68q90 0 148 -62t58 -168q0 -139 -89.5 -232.5t-206.5 -93.5q-110 0 -168 88l-63 -238h-152z"/>
<glyph glyph-name="q" horiz-adv-x="674" unicode="q" d="M309 118q64 0 113 55t49 131q0 51 -32 82.5t-83 31.5q-63 0 -111 -54.5t-48 -133.5q0 -52 30.5 -82t81.5 -30zM328 -200l69 258q-73 -68 -151 -68q-90 0 -148 62t-58 168q0 139 89.5 232.5t206.5 93.5q110 0 168 -88l20 78h152l-196 -736h-152z"/>
<glyph glyph-name="r" horiz-adv-x="419" unicode="r" d="M-3 0l143 536h152l-29 -108q80 119 187 119q3 0 8.5 -0.5t8.5 -0.5l-43 -159h-8q-164 0 -216 -197l-51 -190h-152z"/>
<glyph glyph-name="s" d="M217 -12q-65 0 -130.5 25t-110.5 72l88 91q72 -72 164 -72q64 0 64 47q0 23 -62 50q-38 16 -60.5 28t-47.5 31t-36.5 43t-11.5 55q0 82 58.5 135t156.5 53q61 0 118 -22.5t93 -54.5l-82 -96q-72 57 -140 57q-28 0 -43.5 -12t-15.5 -33q0 -15 17 -27t54 -29 q33 -15 53.5 -26t45 -29.5t36.5 -42.5t12 -54q0 -87 -61.5 -138t-158.5 -51z" unicode="s"/>
<glyph glyph-name="t" horiz-adv-x="415" unicode="t" d="M192 -9q-66 0 -101.5 29.5t-35.5 75.5q0 27 10 67l65 243h-64l35 130h64l37 137h152l-37 -137h126l-35 -130h-126l-60 -225q-4 -16 -4 -24q0 -32 41 -32q39 0 78 17l-35 -129q-47 -22 -110 -22z"/>
<glyph glyph-name="u" horiz-adv-x="622" unicode="u" d="M199 -10q-72 0 -115 42t-43 114q0 34 18 102l77 288h152l-79 -294q-7 -26 -7 -48q0 -66 74 -66q44 0 73.5 28.5t42.5 78.5l81 301h152l-143 -536h-152l15 56q-74 -66 -146 -66z"/>
<glyph glyph-name="v" horiz-adv-x="592" unicode="v" d="M150 -4l-65 540h156l24 -357l213 357h163l-353 -540h-138z"/>
<glyph glyph-name="w" horiz-adv-x="857" unicode="w" d="M109 -4l-20 540h154l-1 -325l188 327h131l14 -328l176 326h151l-312 -540h-137l-15 329l-193 -329h-136z"/>
<glyph glyph-name="x" horiz-adv-x="578" unicode="x" d="M-50 0l262 280l-117 256h162l60 -150l126 150h181l-251 -271l118 -265h-162l-62 159l-136 -159h-181z"/>
<glyph glyph-name="y" horiz-adv-x="592" unicode="y" d="M85 -163q-72 0 -125 37l81 110q28 -21 59 -21q33 0 59 33l-66 540h155l25 -364l201 364h164l-332 -549q-53 -82 -103 -116t-118 -34z"/>
<glyph glyph-name="z" horiz-adv-x="557" unicode="z" d="M-27 0l29 107l351 306h-260l33 123h454l-29 -107l-352 -306h273l-33 -123h-466z"/>
<glyph glyph-name="braceleft" horiz-adv-x="490" unicode="{" d="M308 -141q-99 19 -142.5 56t-43.5 97q0 33 20 86q16 42 16 71q0 31 -15 45.5t-67 14.5h-32l31 116h32q72 0 101 29.5t41 123.5q14 113 80 164.5t202 52.5l10 -102q-91 -9 -122 -41t-39 -110q-11 -100 -48 -139.5t-115 -47.5q41 -6 63 -30t22 -59q0 -31 -18 -77 q-17 -47 -17 -70q0 -31 18 -49t73 -38z"/>
<glyph glyph-name="bar" horiz-adv-x="350" unicode="|" d="M132 -128v926h120v-926h-120z"/>
<glyph glyph-name="braceright" horiz-adv-x="490" unicode="}" d="M-31 -141l-10 102q90 9 121 40.5t40 110.5q11 100 48 139.5t115 47.5q-41 6 -63 30t-22 59q0 31 18 77q17 45 17 70q0 31 -18 49t-73 38l50 93q99 -19 142.5 -56t43.5 -97q0 -33 -20 -86q-16 -42 -16 -71q0 -31 15 -45.5t67 -14.5h32l-31 -116h-32q-72 0 -101 -29.5 t-41 -123.5q-14 -113 -80 -164.5t-202 -52.5z"/>
<glyph glyph-name="asciitilde" horiz-adv-x="510" unicode="~" d="M135 220l-80 40q27 61 67 97t86 36q40 0 79 -29q36 -26 53 -26q37 0 70 59l80 -40q-27 -61 -67 -97t-86 -36q-38 0 -79 29q-36 26 -53 26q-37 0 -70 -59z"/>
<glyph glyph-name="uni00A0" horiz-adv-x="300" unicode=" "/>
<glyph glyph-name="exclamdown" horiz-adv-x="325" unicode="¡" d="M1 0l6 20l165 442h84l-71 -442l-6 -20h-178zM154 540l43 160h162l-43 -160h-162z"/>
<glyph glyph-name="cent" horiz-adv-x="586" unicode="¢" d="M363 503q-64 -7 -106 -59t-42 -116q0 -60 42 -95zM202 104q-65 30 -100.5 87.5t-35.5 134.5q0 131 91.5 219.5t225.5 88.5q17 0 26 -1l28 73h104l-37 -94q74 -32 113 -99l-115 -80q-22 35 -52 52l-109 -279q65 1 125 49l80 -103q-85 -76 -204 -76q-24 0 -46 3l-33 -85 h-104z"/>
<glyph glyph-name="sterling" horiz-adv-x="644" unicode="£" d="M-13 0l27 101l83 25l38 141h-76l34 127h76l25 94q26 97 80 151q71 71 187 71q148 0 214 -120l-123 -84q-38 62 -102 62q-40 0 -68 -28q-27 -27 -41 -78l-19 -68h231l-34 -127h-230l-36 -134h306l-36 -133h-536z"/>
<glyph glyph-name="currency" horiz-adv-x="720" unicode="¤" d="M396 -12q-113 0 -185.5 61.5t-86.5 167.5h-100l27 101h75q5 38 13 68h-70l27 101h73q45 102 130 163.5t197 61.5q195 0 253 -163l-131 -65q-22 47 -50.5 68t-79.5 21q-94 0 -147 -86h193l-27 -101h-204q-10 -27 -17 -68h203l-27 -101h-177q9 -44 40 -67t74 -23 q42 0 74 16.5t67 53.5l104 -90q-99 -119 -248 -119z"/>
<glyph glyph-name="yen" horiz-adv-x="711" unicode="¥" d="M209 0l25 92h-184l29 108h184l16 62h-184l29 108h143l-125 330h166l84 -259l225 259h183l-305 -330h145l-29 -108h-184l-16 -62h184l-29 -108h-184l-25 -92h-148z"/>
<glyph glyph-name="brokenbar" horiz-adv-x="222" unicode="¦" d="M175 -89h-128v250h128v-250zM175 411h-128v250h128v-250z"/>
<glyph glyph-name="section" horiz-adv-x="632" unicode="§" d="M399 288q26 0 45.5 14t19.5 35q0 19 -20 31t-66 26q-69 21 -100 21q-26 0 -45.5 -14t-19.5 -35q0 -19 20 -31t66 -26q69 -21 100 -21zM283 -9q-76 0 -137.5 24.5t-97.5 68.5l95 84q63 -63 148 -63q32 0 51 10.5t19 27.5q0 16 -21 27t-81 27q-45 12 -73.5 22.5t-57.5 27 t-43 39.5t-14 54q0 50 34.5 84t101.5 48q-36 34 -36 83q0 68 63.5 112.5t159.5 44.5q76 0 137.5 -24.5t97.5 -68.5l-95 -84q-63 63 -148 63q-32 0 -51 -10.5t-19 -27.5q0 -16 21 -27t81 -27q45 -12 73.5 -22.5t57.5 -27t43 -39.5t14 -54q0 -50 -34.5 -84t-101.5 -48 q36 -34 36 -83q0 -68 -63.5 -112.5t-159.5 -44.5z"/>
<glyph glyph-name="dieresis" d="M157 595l37 135h146l-37 -135h-146zM371 595l37 135h146l-37 -135h-146z" unicode="¨"/>
<glyph glyph-name="copyright" horiz-adv-x="830" unicode="©" d="M440 156q-84 0 -140.5 57t-56.5 141t56.5 142t143.5 58q91 0 152 -59l-55 -64q-48 43 -97 43q-47 0 -78.5 -34.5t-31.5 -84.5t31 -84.5t79 -34.5q49 0 99 45l56 -56q-64 -69 -158 -69zM435 28q136 0 228.5 94t92.5 229q0 134 -91.5 227.5t-227.5 93.5t-228.5 -94 t-92.5 -229q0 -134 91.5 -227.5t227.5 -93.5zM435 -12q-151 0 -256 106t-105 255t106 256t257 107t256 -106t105 -255t-106 -256t-257 -107z"/>
<glyph glyph-name="ordfeminine" horiz-adv-x="390" unicode="ª" d="M224 457q25 0 46.5 17.5t27.5 42.5l2 8q-28 10 -55 10t-43.5 -12.5t-16.5 -33.5q0 -14 10.5 -23t28.5 -9zM51 277l18 66h266l-18 -66h-266zM188 400q-38 0 -62 22t-24 57q0 50 36 78.5t91 28.5q42 0 84 -14l2 7q3 9 3 17q0 37 -57 37q-41 0 -78 -16l-14 66q50 21 110 21 q119 0 119 -91q0 -23 -6 -44l-44 -163h-81l9 34q-38 -40 -88 -40z"/>
<glyph glyph-name="guillemotleft" horiz-adv-x="643" unicode="«" d="M154 31l-108 224l2 8l237 233l87 -80l-176 -171l80 -160zM424 31l-108 224l2 8l237 233l87 -80l-176 -171l80 -160z"/>
<glyph glyph-name="logicalnot" horiz-adv-x="640" unicode="¬" d="M546 238h-139l47 174h-342l37 135h480z"/>
<glyph glyph-name="uni00AD" horiz-adv-x="412" unicode="­" d="M44 237l39 146h308l-39 -146h-308z"/>
<glyph glyph-name="registered" horiz-adv-x="830" unicode="®" d="M372 365h85q32 0 49 15.5t17 40.5q0 57 -68 57h-83v-113zM287 168v385h171q70 0 110.5 -33.5t40.5 -93.5q0 -90 -83 -120l94 -138h-99l-82 124h-67v-124h-85zM435 28q136 0 228.5 94t92.5 229q0 134 -91.5 227.5t-227.5 93.5t-228.5 -94t-92.5 -229q0 -134 91.5 -227.5 t227.5 -93.5zM435 -12q-151 0 -256 106t-105 255t106 256t257 107t256 -106t105 -255t-106 -256t-257 -107z"/>
<glyph glyph-name="macron" d="M159 600l28 105h360l-28 -105h-360z" unicode="¯"/>
<glyph glyph-name="degree" horiz-adv-x="445" unicode="°" d="M252 441q42 0 70.5 34.5t28.5 76.5q0 35 -20.5 57t-54.5 22q-42 0 -70.5 -34.5t-28.5 -76.5q0 -35 20.5 -57t54.5 -22zM249 363q-73 0 -117 43t-44 111q0 76 56 134t135 58q73 0 117 -43t44 -111q0 -76 -56 -134t-135 -58z"/>
<glyph glyph-name="plusminus" horiz-adv-x="640" unicode="±" d="M485 -5h-491l33 126h492zM581 325h-184l-38 -145h-141l39 145h-184l36 134h184l39 145h140l-39 -145h184z"/>
<glyph glyph-name="twosuperior" d="M250 395l171 255h-340zM451 95v510l-172 -256zM50 95l170 254l-170 256v-510zM81 49h340l-171 255zM0 0v700h500v-700h-500z" unicode="²"/>
<glyph glyph-name="threesuperior" d="M250 395l171 255h-340zM451 95v510l-172 -256zM50 95l170 254l-170 256v-510zM81 49h340l-171 255zM0 0v700h500v-700h-500z" unicode="³"/>
<glyph glyph-name="acute" d="M208 595l161 177l128 -57l-161 -120h-128z" unicode="´"/>
<glyph glyph-name="mu" horiz-adv-x="639" unicode="µ" d="M204 -4q-33 0 -52 26l-49 -182h-149l186 696h151l-80 -300q-6 -24 -6 -46q0 -65 68 -65q47 0 86.5 30.5t53.5 82.5l79 298h150l-142 -536h-151l21 78q-78 -82 -166 -82z"/>
<glyph glyph-name="paragraph" horiz-adv-x="599" unicode="¶" d="M290 0l56 212q-124 2 -191.5 55t-67.5 157q0 122 90 199t263 77h191l-188 -700h-153z"/>
<glyph glyph-name="periodcentered" horiz-adv-x="319" unicode="·" d="M64 230l43 160h162l-43 -160h-162z"/>
<glyph glyph-name="cedilla" d="M157 -173l-113 53l124 130h112z" unicode="¸"/>
<glyph glyph-name="onesuperior" d="M250 395l171 255h-340zM451 95v510l-172 -256zM50 95l170 254l-170 256v-510zM81 49h340l-171 255zM0 0v700h500v-700h-500z" unicode="¹"/>
<glyph glyph-name="ordmasculine" horiz-adv-x="402" unicode="º" d="M249 470q37 0 61 30t24 66q0 30 -17.5 49t-45.5 19q-37 0 -61 -30t-24 -66q0 -30 17.5 -49t45.5 -19zM51 277l18 66h278l-18 -66h-278zM246 399q-64 0 -103 38t-39 98q0 68 49.5 119t120.5 51q64 0 103 -38t39 -98q0 -68 -49.5 -119t-120.5 -51z"/>
<glyph glyph-name="guillemotright" horiz-adv-x="643" unicode="»" d="M86 31l-87 80l176 171l-80 160l122 54l108 -224l-2 -8zM356 31l-87 80l176 171l-80 160l122 54l108 -224l-2 -8z"/>
<glyph glyph-name="onequarter" d="M250 395l171 255h-340zM451 95v510l-172 -256zM50 95l170 254l-170 256v-510zM81 49h340l-171 255zM0 0v700h500v-700h-500z" unicode="¼"/>
<glyph glyph-name="onehalf" d="M250 395l171 255h-340zM451 95v510l-172 -256zM50 95l170 254l-170 256v-510zM81 49h340l-171 255zM0 0v700h500v-700h-500z" unicode="½"/>
<glyph glyph-name="threequarters" d="M250 395l171 255h-340zM451 95v510l-172 -256zM50 95l170 254l-170 256v-510zM81 49h340l-171 255zM0 0v700h500v-700h-500z" unicode="¾"/>
<glyph glyph-name="questiondown" horiz-adv-x="544" unicode="¿" d="M247 -9q-102 0 -162.5 53.5t-60.5 128.5q0 88 65 144t191 75l29 70h102l-20 -162l-6 -5q-200 -14 -200 -102q0 -62 83 -62q74 0 143 59l80 -101q-47 -48 -111.5 -73t-132.5 -25zM297 540l43 160h162l-43 -160h-162z"/>
<glyph glyph-name="Agrave" horiz-adv-x="765" unicode="À" d="M462 755l-95 120l134 57l65 -177h-104zM307 293h186l-32 231zM-57 0l489 705h148l111 -705h-158l-22 157h-296l-106 -157h-166z"/>
<glyph glyph-name="Aacute" horiz-adv-x="765" unicode="Á" d="M426 755l161 177l128 -57l-161 -120h-128zM307 293h186l-32 231zM-57 0l489 705h148l111 -705h-158l-22 157h-296l-106 -157h-166z"/>
<glyph glyph-name="Acircumflex" horiz-adv-x="765" unicode="Â" d="M298 755l165 157h144l81 -157h-110l-61 66l-97 -66h-122zM307 293h186l-32 231zM-57 0l489 705h148l111 -705h-158l-22 157h-296l-106 -157h-166z"/>
<glyph glyph-name="Atilde" horiz-adv-x="765" unicode="Ã" d="M374 748l-80 40q27 61 67 97t86 36q40 0 79 -29q36 -26 53 -26q37 0 70 59l80 -40q-27 -61 -67 -97t-86 -36q-38 0 -79 29q-36 26 -53 26q-37 0 -70 -59zM307 293h186l-32 231zM-57 0l489 705h148l111 -705h-158l-22 157h-296l-106 -157h-166z"/>
<glyph glyph-name="Adieresis" horiz-adv-x="765" unicode="Ä" d="M329 755l37 135h146l-37 -135h-146zM543 755l37 135h146l-37 -135h-146zM307 293h186l-32 231zM-57 0l489 705h148l111 -705h-158l-22 157h-296l-106 -157h-166z"/>
<glyph glyph-name="Aring" horiz-adv-x="765" unicode="Å" d="M307 293h186l-32 231zM509 714q30 0 49 23.5t19 54.5q0 22 -13 36t-35 14q-30 0 -49 -23.5t-19 -54.5q0 -22 13 -36t35 -14zM-57 0l480 692q-26 29 -26 71q0 55 39 94.5t95 39.5q50 0 80 -29.5t30 -74.5q0 -69 -58 -110l108 -683h-158l-22 157h-296l-106 -157h-166z"/>
<glyph glyph-name="AE" horiz-adv-x="1058" unicode="Æ" d="M340 293h164l73 274h-19zM-61 0l565 700h612l-37 -137h-350l-38 -143h305l-37 -135h-305l-40 -148h356l-37 -137h-508l42 157h-236l-125 -157h-167z"/>
<glyph glyph-name="Ccedilla" horiz-adv-x="726" unicode="Ç" d="M388 -12l-108 -161l-113 53l117 123q-100 29 -158.5 105t-58.5 185q0 169 125.5 294t300.5 125q189 0 280 -149l-127 -89q-34 48 -73.5 72t-98.5 24q-97 0 -172 -80.5t-75 -190.5q0 -75 48 -122t123 -47q47 0 83.5 17t80.5 52l100 -104q-116 -107 -265 -107h-9z"/>
<glyph glyph-name="Egrave" horiz-adv-x="665" unicode="È" d="M428 755l-95 120l134 57l65 -177h-104zM12 0l188 700h523l-37 -137h-370l-38 -143h325l-37 -135h-325l-40 -148h376l-37 -137h-528z"/>
<glyph glyph-name="Eacute" horiz-adv-x="665" unicode="É" d="M385 755l161 177l128 -57l-161 -120h-128zM12 0l188 700h523l-37 -137h-370l-38 -143h325l-37 -135h-325l-40 -148h376l-37 -137h-528z"/>
<glyph glyph-name="Ecircumflex" horiz-adv-x="665" unicode="Ê" d="M279 755l165 157h144l81 -157h-110l-61 66l-97 -66h-122zM12 0l188 700h523l-37 -137h-370l-38 -143h325l-37 -135h-325l-40 -148h376l-37 -137h-528z"/>
<glyph glyph-name="Edieresis" horiz-adv-x="665" unicode="Ë" d="M293 755l37 135h146l-37 -135h-146zM507 755l37 135h146l-37 -135h-146zM12 0l188 700h523l-37 -137h-370l-38 -143h325l-37 -135h-325l-40 -148h376l-37 -137h-528z"/>
<glyph glyph-name="Igrave" horiz-adv-x="336" unicode="Ì" d="M256 755l-95 120l134 57l65 -177h-104zM19 0l188 700h154l-188 -700h-154z"/>
<glyph glyph-name="Iacute" horiz-adv-x="336" unicode="Í" d="M210 755l161 177l128 -57l-161 -120h-128zM19 0l188 700h154l-188 -700h-154z"/>
<glyph glyph-name="Icircumflex" horiz-adv-x="336" unicode="Î" d="M92 755l165 157h144l81 -157h-110l-61 66l-97 -66h-122zM19 0l188 700h154l-188 -700h-154z"/>
<glyph glyph-name="Idieresis" horiz-adv-x="336" unicode="Ï" d="M117 755l37 135h146l-37 -135h-146zM331 755l37 135h146l-37 -135h-146zM19 0l188 700h154l-188 -700h-154z"/>
<glyph glyph-name="Eth" horiz-adv-x="797" unicode="Ð" d="M223 139h87q149 0 234 85q70 70 70 175q0 70 -41 111q-51 51 -161 51h-75l-38 -141h142l-37 -136h-142zM32 0l76 284h-83l37 136h83l75 280h204q184 0 274 -90q76 -76 76 -205q0 -161 -115 -276q-129 -129 -367 -129h-260z"/>
<glyph glyph-name="Ntilde" horiz-adv-x="786" unicode="Ñ" d="M387 748l-80 40q27 61 67 97t86 36q40 0 79 -29q36 -26 53 -26q37 0 70 59l80 -40q-27 -61 -67 -97t-86 -36q-38 0 -79 29q-36 26 -53 26q-37 0 -70 -59zM12 0l188 700h142l204 -445l120 445h152l-188 -700h-131l-212 459l-123 -459h-152z"/>
<glyph glyph-name="Ograve" horiz-adv-x="832" unicode="Ò" d="M472 755l-95 120l134 57l65 -177h-104zM405 130q105 0 174 82.5t69 179.5q0 80 -47 129t-131 49q-105 0 -174 -82.5t-69 -179.5q0 -80 47 -129t131 -49zM387 -12q-143 0 -231.5 88t-88.5 222q0 105 52 199.5t150 154.5t219 60q143 0 231.5 -88t88.5 -222 q0 -105 -52 -199.5t-150 -154.5t-219 -60z"/>
<glyph glyph-name="Oacute" horiz-adv-x="832" unicode="Ó" d="M414 755l161 177l128 -57l-161 -120h-128zM405 130q105 0 174 82.5t69 179.5q0 80 -47 129t-131 49q-105 0 -174 -82.5t-69 -179.5q0 -80 47 -129t131 -49zM387 -12q-143 0 -231.5 88t-88.5 222q0 105 52 199.5t150 154.5t219 60q143 0 231.5 -88t88.5 -222 q0 -105 -52 -199.5t-150 -154.5t-219 -60z"/>
<glyph glyph-name="Ocircumflex" horiz-adv-x="832" unicode="Ô" d="M319 755l165 157h144l81 -157h-110l-61 66l-97 -66h-122zM405 130q105 0 174 82.5t69 179.5q0 80 -47 129t-131 49q-105 0 -174 -82.5t-69 -179.5q0 -80 47 -129t131 -49zM387 -12q-143 0 -231.5 88t-88.5 222q0 105 52 199.5t150 154.5t219 60q143 0 231.5 -88 t88.5 -222q0 -105 -52 -199.5t-150 -154.5t-219 -60z"/>
<glyph glyph-name="Otilde" horiz-adv-x="832" unicode="Õ" d="M398 748l-80 40q27 61 67 97t86 36q40 0 79 -29q36 -26 53 -26q37 0 70 59l80 -40q-27 -61 -67 -97t-86 -36q-38 0 -79 29q-36 26 -53 26q-37 0 -70 -59zM405 130q105 0 174 82.5t69 179.5q0 80 -47 129t-131 49q-105 0 -174 -82.5t-69 -179.5q0 -80 47 -129t131 -49z M387 -12q-143 0 -231.5 88t-88.5 222q0 105 52 199.5t150 154.5t219 60q143 0 231.5 -88t88.5 -222q0 -105 -52 -199.5t-150 -154.5t-219 -60z"/>
<glyph glyph-name="Odieresis" horiz-adv-x="832" unicode="Ö" d="M342 755l37 135h146l-37 -135h-146zM556 755l37 135h146l-37 -135h-146zM405 130q105 0 174 82.5t69 179.5q0 80 -47 129t-131 49q-105 0 -174 -82.5t-69 -179.5q0 -80 47 -129t131 -49zM387 -12q-143 0 -231.5 88t-88.5 222q0 105 52 199.5t150 154.5t219 60 q143 0 231.5 -88t88.5 -222q0 -105 -52 -199.5t-150 -154.5t-219 -60z"/>
<glyph glyph-name="multiply" horiz-adv-x="640" unicode="×" d="M586 125l-88 -89l-170 170l-168 -170l-88 89q84 85 169 169l-169 169q9 9 40 40.5t48 48.5l168 -170q19 19 54 53.5t63 63t53 53.5q17 -17 48 -48.5t40 -40.5l-169 -169q85 -84 169 -169z"/>
<glyph glyph-name="Oslash" horiz-adv-x="832" unicode="Ø" d="M404 123q107 0 178.5 85t71.5 185q0 37 -11 72l-343 -316q43 -26 104 -26zM236 226l347 319q-44 32 -112 32q-107 0 -178.5 -85t-71.5 -185q0 -45 15 -81zM387 -12q-119 0 -204 64l-62 -57h-147l142 130q-49 75 -49 173q0 105 52 199.5t150 154.5t219 60q125 0 211 -70 l68 63h147l-150 -138q44 -71 44 -165q0 -105 -52 -199.5t-150 -154.5t-219 -60z"/>
<glyph glyph-name="Ugrave" horiz-adv-x="764" unicode="Ù" d="M463 755l-95 120l134 57l65 -177h-104zM343 -11q-122 0 -192 62.5t-70 173.5q0 52 17 112l97 363h154l-101 -377q-11 -38 -11 -76q0 -53 32 -84.5t90 -31.5q68 0 114 44q46 46 68 130l106 395h154l-112 -417q-36 -136 -108 -208q-86 -86 -238 -86z"/>
<glyph glyph-name="Uacute" horiz-adv-x="764" unicode="Ú" d="M418 755l161 177l128 -57l-161 -120h-128zM343 -11q-122 0 -192 62.5t-70 173.5q0 52 17 112l97 363h154l-101 -377q-11 -38 -11 -76q0 -53 32 -84.5t90 -31.5q68 0 114 44q46 46 68 130l106 395h154l-112 -417q-36 -136 -108 -208q-86 -86 -238 -86z"/>
<glyph glyph-name="Ucircumflex" horiz-adv-x="764" unicode="Û" d="M303 755l165 157h144l81 -157h-110l-61 66l-97 -66h-122zM343 -11q-122 0 -192 62.5t-70 173.5q0 52 17 112l97 363h154l-101 -377q-11 -38 -11 -76q0 -53 32 -84.5t90 -31.5q68 0 114 44q46 46 68 130l106 395h154l-112 -417q-36 -136 -108 -208q-86 -86 -238 -86z"/>
<glyph glyph-name="Udieresis" horiz-adv-x="764" unicode="Ü" d="M331 755l37 135h146l-37 -135h-146zM545 755l37 135h146l-37 -135h-146zM343 -11q-122 0 -192 62.5t-70 173.5q0 52 17 112l97 363h154l-101 -377q-11 -38 -11 -76q0 -53 32 -84.5t90 -31.5q68 0 114 44q46 46 68 130l106 395h154l-112 -417q-36 -136 -108 -208 q-86 -86 -238 -86z"/>
<glyph glyph-name="Yacute" horiz-adv-x="650" unicode="Ý" d="M359 755l161 177l128 -57l-161 -120h-128zM169 0l74 276l-145 424h171l82 -290l240 290h186l-383 -438l-71 -262h-154z"/>
<glyph glyph-name="Thorn" horiz-adv-x="689" unicode="Þ" d="M232 245h105q78 0 124.5 33.5t46.5 91.5q0 35 -23 58q-31 31 -96 31h-100zM12 0l188 700h154l-27 -102h68q149 0 220 -71q54 -54 54 -144q0 -127 -96 -200t-244 -73h-133l-30 -110h-154z"/>
<glyph glyph-name="germandbls" horiz-adv-x="632" unicode="ß" d="M227 -2l32 118h13q80 0 116 29.5t36 76.5q0 72 -115 84l27 100q138 31 138 127q0 36 -22.5 56t-56.5 20q-84 0 -115 -114l-132 -495h-151l135 503q29 107 87 165q69 69 181 69q101 0 159 -53t58 -136q0 -71 -40.5 -119.5t-113.5 -71.5q104 -45 104 -139q0 -99 -79 -159.5 t-237 -60.5h-24z"/>
<glyph glyph-name="agrave" horiz-adv-x="588" unicode="à" d="M332 595l-95 120l134 57l65 -177h-104zM228 94q46 0 84 31.5t51 76.5l4 14q-49 19 -100 19q-48 0 -78.5 -23t-30.5 -61q0 -25 19 -41t51 -16zM163 -10q-69 0 -112.5 40.5t-43.5 103.5q0 90 65 141.5t166 51.5q74 0 151 -24l2 7q6 24 6 40q0 63 -101 63q-72 0 -143 -29 l-24 120q91 38 199 38q107 0 162 -42.5t55 -122.5q0 -35 -12 -81l-79 -296h-147l16 62q-67 -72 -160 -72z"/>
<glyph glyph-name="aacute" horiz-adv-x="588" unicode="á" d="M284 595l161 177l128 -57l-161 -120h-128zM228 94q46 0 84 31.5t51 76.5l4 14q-49 19 -100 19q-48 0 -78.5 -23t-30.5 -61q0 -25 19 -41t51 -16zM163 -10q-69 0 -112.5 40.5t-43.5 103.5q0 90 65 141.5t166 51.5q74 0 151 -24l2 7q6 24 6 40q0 63 -101 63q-72 0 -143 -29 l-24 120q91 38 199 38q107 0 162 -42.5t55 -122.5q0 -35 -12 -81l-79 -296h-147l16 62q-67 -72 -160 -72z"/>
<glyph glyph-name="acircumflex" horiz-adv-x="588" unicode="â" d="M179 595l165 157h144l81 -157h-110l-61 66l-97 -66h-122zM228 94q46 0 84 31.5t51 76.5l4 14q-49 19 -100 19q-48 0 -78.5 -23t-30.5 -61q0 -25 19 -41t51 -16zM163 -10q-69 0 -112.5 40.5t-43.5 103.5q0 90 65 141.5t166 51.5q74 0 151 -24l2 7q6 24 6 40q0 63 -101 63 q-72 0 -143 -29l-24 120q91 38 199 38q107 0 162 -42.5t55 -122.5q0 -35 -12 -81l-79 -296h-147l16 62q-67 -72 -160 -72z"/>
<glyph glyph-name="atilde" horiz-adv-x="588" unicode="ã" d="M246 588l-80 40q27 61 67 97t86 36q40 0 79 -29q36 -26 53 -26q37 0 70 59l80 -40q-27 -61 -67 -97t-86 -36q-38 0 -79 29q-36 26 -53 26q-37 0 -70 -59zM228 94q46 0 84 31.5t51 76.5l4 14q-49 19 -100 19q-48 0 -78.5 -23t-30.5 -61q0 -25 19 -41t51 -16zM163 -10 q-69 0 -112.5 40.5t-43.5 103.5q0 90 65 141.5t166 51.5q74 0 151 -24l2 7q6 24 6 40q0 63 -101 63q-72 0 -143 -29l-24 120q91 38 199 38q107 0 162 -42.5t55 -122.5q0 -35 -12 -81l-79 -296h-147l16 62q-67 -72 -160 -72z"/>
<glyph glyph-name="adieresis" horiz-adv-x="588" unicode="ä" d="M195 595l37 135h146l-37 -135h-146zM409 595l37 135h146l-37 -135h-146zM228 94q46 0 84 31.5t51 76.5l4 14q-49 19 -100 19q-48 0 -78.5 -23t-30.5 -61q0 -25 19 -41t51 -16zM163 -10q-69 0 -112.5 40.5t-43.5 103.5q0 90 65 141.5t166 51.5q74 0 151 -24l2 7q6 24 6 40 q0 63 -101 63q-72 0 -143 -29l-24 120q91 38 199 38q107 0 162 -42.5t55 -122.5q0 -35 -12 -81l-79 -296h-147l16 62q-67 -72 -160 -72z"/>
<glyph glyph-name="aring" horiz-adv-x="588" unicode="å" d="M393 648q30 0 49 23.5t19 54.5q0 22 -13 36t-35 14q-30 0 -49 -23.5t-19 -54.5q0 -22 13 -36t35 -14zM391 593q-50 0 -80 29.5t-30 74.5q0 55 39 94.5t95 39.5q50 0 80 -29.5t30 -74.5q0 -55 -39 -94.5t-95 -39.5zM228 94q46 0 84 31.5t51 76.5l4 14q-49 19 -100 19 q-48 0 -78.5 -23t-30.5 -61q0 -25 19 -41t51 -16zM163 -10q-69 0 -112.5 40.5t-43.5 103.5q0 90 65 141.5t166 51.5q74 0 151 -24l2 7q6 24 6 40q0 63 -101 63q-72 0 -143 -29l-24 120q91 38 199 38q107 0 162 -42.5t55 -122.5q0 -35 -12 -81l-79 -296h-147l16 62 q-67 -72 -160 -72z"/>
<glyph glyph-name="ae" horiz-adv-x="940" unicode="æ" d="M386 208q-61 27 -119 27q-48 0 -78.5 -23t-30.5 -61q0 -26 20.5 -41.5t59.5 -15.5q37 0 79.5 18t74.5 50q-4 21 -6 46zM530 310h233q5 17 5 35q0 35 -22 57t-66 22q-51 0 -91 -31t-59 -83zM418 91q-98 -101 -240 -101q-81 0 -126 39t-45 105q0 90 65 141.5t166 51.5 q74 0 151 -24l2 7q6 24 6 40q0 63 -101 63q-72 0 -143 -29l-24 120q91 38 199 38q131 0 176 -79q83 83 193 83q98 0 156 -59t58 -150q0 -57 -27 -122h-367q8 -105 122 -105q58 0 119 43l70 -94q-78 -71 -206 -71q-144 0 -204 103z"/>
<glyph glyph-name="ccedilla" horiz-adv-x="560" unicode="ç" d="M296 -12l-108 -161l-113 53l119 124q-71 26 -111.5 85.5t-40.5 140.5q0 131 93.5 223.5t222.5 92.5q152 0 220 -118l-116 -82q-23 35 -48.5 52.5t-67.5 17.5q-60 0 -107 -56t-47 -130q0 -51 30 -82t75 -31q59 0 121 53l78 -99q-46 -41 -92 -61.5t-108 -21.5z"/>
<glyph glyph-name="egrave" horiz-adv-x="607" unicode="è" d="M339 595l-95 120l134 57l65 -177h-104zM197 310h233q5 17 5 35q0 35 -22 57t-66 22q-51 0 -91 -31t-59 -83zM184 215q8 -105 122 -105q58 0 119 43l70 -94q-85 -71 -206 -71q-116 0 -182 63.5t-66 174.5q0 79 38.5 151.5t113 120.5t166.5 48q102 0 160.5 -58.5 t58.5 -150.5q0 -57 -27 -122h-367z"/>
<glyph glyph-name="eacute" horiz-adv-x="607" unicode="é" d="M286 595l161 177l128 -57l-161 -120h-128zM197 310h233q5 17 5 35q0 35 -22 57t-66 22q-51 0 -91 -31t-59 -83zM184 215q8 -105 122 -105q58 0 119 43l70 -94q-85 -71 -206 -71q-116 0 -182 63.5t-66 174.5q0 79 38.5 151.5t113 120.5t166.5 48q102 0 160.5 -58.5 t58.5 -150.5q0 -57 -27 -122h-367z"/>
<glyph glyph-name="ecircumflex" horiz-adv-x="607" unicode="ê" d="M183 595l165 157h144l81 -157h-110l-61 66l-97 -66h-122zM197 310h233q5 17 5 35q0 35 -22 57t-66 22q-51 0 -91 -31t-59 -83zM184 215q8 -105 122 -105q58 0 119 43l70 -94q-85 -71 -206 -71q-116 0 -182 63.5t-66 174.5q0 79 38.5 151.5t113 120.5t166.5 48 q102 0 160.5 -58.5t58.5 -150.5q0 -57 -27 -122h-367z"/>
<glyph glyph-name="edieresis" horiz-adv-x="607" unicode="ë" d="M202 595l37 135h146l-37 -135h-146zM416 595l37 135h146l-37 -135h-146zM197 310h233q5 17 5 35q0 35 -22 57t-66 22q-51 0 -91 -31t-59 -83zM184 215q8 -105 122 -105q58 0 119 43l70 -94q-85 -71 -206 -71q-116 0 -182 63.5t-66 174.5q0 79 38.5 151.5t113 120.5 t166.5 48q102 0 160.5 -58.5t58.5 -150.5q0 -57 -27 -122h-367z"/>
<glyph glyph-name="igrave" horiz-adv-x="302" unicode="ì" d="M206 595l-95 120l134 57l65 -177h-104zM3 0l144 536h152l-144 -536h-152z"/>
<glyph glyph-name="iacute" horiz-adv-x="302" unicode="í" d="M148 595l161 177l128 -57l-161 -120h-128zM3 0l144 536h152l-144 -536h-152z"/>
<glyph glyph-name="icircumflex" horiz-adv-x="302" unicode="î" d="M37 595l165 157h144l81 -157h-110l-61 66l-97 -66h-122zM3 0l144 536h152l-144 -536h-152z"/>
<glyph glyph-name="idieresis" horiz-adv-x="302" unicode="ï" d="M56 595l37 135h146l-37 -135h-146zM270 595l37 135h146l-37 -135h-146zM3 0l144 536h152l-144 -536h-152z"/>
<glyph glyph-name="eth" horiz-adv-x="638" unicode="ð" d="M295 116q62 0 103 45t41 103q0 51 -31 82.5t-82 31.5q-61 0 -102 -43t-41 -103q0 -54 31.5 -85t80.5 -31zM286 -12q-111 0 -179.5 65t-68.5 170q0 109 77 186t185 77q87 0 151 -59l-67 145l-135 -49l-36 75l137 50l-38 82h150l16 -35l118 43l35 -75l-120 -44l38 -86 q44 -100 44 -205q0 -146 -83 -243t-224 -97z"/>
<glyph glyph-name="ntilde" horiz-adv-x="619" unicode="ñ" d="M262 588l-80 40q27 61 67 97t86 36q40 0 79 -29q36 -26 53 -26q37 0 70 59l80 -40q-27 -61 -67 -97t-86 -36q-38 0 -79 29q-36 26 -53 26q-37 0 -70 -59zM-3 0l143 536h152l-15 -56q74 66 146 66t115 -42t43 -114q0 -34 -18 -102l-77 -288h-152l79 294q7 26 7 48 q0 66 -74 66q-44 0 -73.5 -28.5t-42.5 -78.5l-81 -301h-152z"/>
<glyph glyph-name="ograve" horiz-adv-x="652" unicode="ò" d="M350 595l-95 120l134 57l65 -177h-104zM307 118q66 0 110 57t44 119q0 58 -31.5 90t-84.5 32q-66 0 -110 -57t-44 -119q0 -58 31.5 -90t84.5 -32zM300 -12q-117 0 -187.5 69.5t-70.5 178.5q0 122 91.5 216t218.5 94q117 0 187.5 -69.5t70.5 -178.5q0 -122 -91.5 -216 t-218.5 -94z"/>
<glyph glyph-name="oacute" horiz-adv-x="652" unicode="ó" d="M287 595l161 177l128 -57l-161 -120h-128zM307 118q66 0 110 57t44 119q0 58 -31.5 90t-84.5 32q-66 0 -110 -57t-44 -119q0 -58 31.5 -90t84.5 -32zM300 -12q-117 0 -187.5 69.5t-70.5 178.5q0 122 91.5 216t218.5 94q117 0 187.5 -69.5t70.5 -178.5q0 -122 -91.5 -216 t-218.5 -94z"/>
<glyph glyph-name="ocircumflex" horiz-adv-x="652" unicode="ô" d="M188 595l165 157h144l81 -157h-110l-61 66l-97 -66h-122zM307 118q66 0 110 57t44 119q0 58 -31.5 90t-84.5 32q-66 0 -110 -57t-44 -119q0 -58 31.5 -90t84.5 -32zM300 -12q-117 0 -187.5 69.5t-70.5 178.5q0 122 91.5 216t218.5 94q117 0 187.5 -69.5t70.5 -178.5 q0 -122 -91.5 -216t-218.5 -94z"/>
<glyph glyph-name="otilde" horiz-adv-x="652" unicode="õ" d="M255 588l-80 40q27 61 67 97t86 36q40 0 79 -29q36 -26 53 -26q37 0 70 59l80 -40q-27 -61 -67 -97t-86 -36q-38 0 -79 29q-36 26 -53 26q-37 0 -70 -59zM307 118q66 0 110 57t44 119q0 58 -31.5 90t-84.5 32q-66 0 -110 -57t-44 -119q0 -58 31.5 -90t84.5 -32zM300 -12 q-117 0 -187.5 69.5t-70.5 178.5q0 122 91.5 216t218.5 94q117 0 187.5 -69.5t70.5 -178.5q0 -122 -91.5 -216t-218.5 -94z"/>
<glyph glyph-name="odieresis" horiz-adv-x="652" unicode="ö" d="M206 595l37 135h146l-37 -135h-146zM420 595l37 135h146l-37 -135h-146zM307 118q66 0 110 57t44 119q0 58 -31.5 90t-84.5 32q-66 0 -110 -57t-44 -119q0 -58 31.5 -90t84.5 -32zM300 -12q-117 0 -187.5 69.5t-70.5 178.5q0 122 91.5 216t218.5 94q117 0 187.5 -69.5 t70.5 -178.5q0 -122 -91.5 -216t-218.5 -94z"/>
<glyph glyph-name="divide" horiz-adv-x="640" unicode="÷" d="M311 498l40 150h146l-40 -150h-146zM88 287l37 135h480l-36 -135h-481zM193 61l41 149h146l-40 -149h-147z"/>
<glyph glyph-name="oslash" horiz-adv-x="652" unicode="ø" d="M303 113q71 0 117 58t46 123q0 26 -4 42l-226 -206q28 -17 67 -17zM189 205l222 202q-25 14 -62 14q-71 0 -117 -58t-46 -123q0 -18 3 -35zM300 -12q-100 0 -169 53l-51 -46h-133l126 114q-31 57 -31 127q0 122 91.5 216t218.5 94q98 0 164 -50l49 45h133l-122 -111 q34 -57 34 -132q0 -122 -91.5 -216t-218.5 -94z"/>
<glyph glyph-name="ugrave" horiz-adv-x="622" unicode="ù" d="M368 595l-95 120l134 57l65 -177h-104zM199 -10q-72 0 -115 42t-43 114q0 34 18 102l77 288h152l-79 -294q-7 -26 -7 -48q0 -66 74 -66q44 0 73.5 28.5t42.5 78.5l81 301h152l-143 -536h-152l15 56q-74 -66 -146 -66z"/>
<glyph glyph-name="uacute" horiz-adv-x="622" unicode="ú" d="M299 595l161 177l128 -57l-161 -120h-128zM199 -10q-72 0 -115 42t-43 114q0 34 18 102l77 288h152l-79 -294q-7 -26 -7 -48q0 -66 74 -66q44 0 73.5 28.5t42.5 78.5l81 301h152l-143 -536h-152l15 56q-74 -66 -146 -66z"/>
<glyph glyph-name="ucircumflex" horiz-adv-x="622" unicode="û" d="M195 595l165 157h144l81 -157h-110l-61 66l-97 -66h-122zM199 -10q-72 0 -115 42t-43 114q0 34 18 102l77 288h152l-79 -294q-7 -26 -7 -48q0 -66 74 -66q44 0 73.5 28.5t42.5 78.5l81 301h152l-143 -536h-152l15 56q-74 -66 -146 -66z"/>
<glyph glyph-name="udieresis" horiz-adv-x="622" unicode="ü" d="M214 595l37 135h146l-37 -135h-146zM428 595l37 135h146l-37 -135h-146zM199 -10q-72 0 -115 42t-43 114q0 34 18 102l77 288h152l-79 -294q-7 -26 -7 -48q0 -66 74 -66q44 0 73.5 28.5t42.5 78.5l81 301h152l-143 -536h-152l15 56q-74 -66 -146 -66z"/>
<glyph glyph-name="yacute" horiz-adv-x="592" unicode="ý" d="M295 595l161 177l128 -57l-161 -120h-128zM85 -163q-72 0 -125 37l81 110q28 -21 59 -21q33 0 59 33l-66 540h155l25 -364l201 364h164l-332 -549q-53 -82 -103 -116t-118 -34z"/>
<glyph glyph-name="thorn" horiz-adv-x="674" unicode="þ" d="M317 118q63 0 111 54.5t48 133.5q0 52 -30.5 82t-81.5 30q-64 0 -113 -55t-49 -131q0 -51 32 -82.5t83 -31.5zM-46 -160l238 890h152l-68 -252q73 68 151 68q90 0 148 -62t58 -168q0 -139 -89.5 -232.5t-206.5 -93.5q-110 0 -168 88l-63 -238h-152z"/>
<glyph glyph-name="ydieresis" horiz-adv-x="592" unicode="ÿ" d="M189 595l37 135h146l-37 -135h-146zM403 595l37 135h146l-37 -135h-146zM85 -163q-72 0 -125 37l81 110q28 -21 59 -21q33 0 59 33l-66 540h155l25 -364l201 364h164l-332 -549q-53 -82 -103 -116t-118 -34z"/>
<glyph glyph-name="dotlessi" horiz-adv-x="302" unicode="ı" d="M3 0l144 536h152l-144 -536h-152z"/>
<glyph glyph-name="Lslash" horiz-adv-x="657" unicode="Ł" d="M43 0l70 262l-81 -22l39 143l81 22l79 295h149l-67 -250l210 58l-38 -143l-210 -58l-45 -167h354l-38 -140h-503z"/>
<glyph glyph-name="lslash" horiz-adv-x="359" unicode="ł" d="M34 0l75 279l-81 -22l38 143l81 22l83 308h152l-71 -262l81 22l-38 -143l-81 -22l-87 -325h-152z"/>
<glyph glyph-name="OE" horiz-adv-x="1071" unicode="Œ" d="M429 139h45l114 422h-57q-149 0 -234 -85q-70 -70 -70 -175q0 -70 41 -111q51 -51 161 -51zM417 0q-184 0 -279 95q-71 71 -71 200q0 161 115 276q129 129 367 129h580l-37 -137h-350l-38 -143h305l-37 -135h-305l-40 -148h356l-37 -137h-529z"/>
<glyph glyph-name="oe" horiz-adv-x="1028" unicode="œ" d="M306 118q68 0 111.5 54t43.5 121q0 55 -31.5 89t-83.5 34q-68 0 -111.5 -54t-43.5 -121q0 -55 31.5 -89t83.5 -34zM618 310h233q5 17 5 35q0 35 -22 57t-66 22q-51 0 -91 -31t-59 -83zM605 215q8 -105 122 -105q58 0 119 43l70 -94q-78 -71 -206 -71q-143 0 -199 98 q-83 -98 -210 -98q-118 0 -188.5 69.5t-70.5 178.5q0 124 90.5 217t218.5 93q148 0 207 -106q86 106 222 106q102 0 160.5 -58.5t58.5 -150.5q0 -57 -27 -122h-367z"/>
<glyph glyph-name="Scaron" horiz-adv-x="636" unicode="Š" d="M358 755l-81 157h110l61 -66l97 66h122l-165 -157h-144zM295 -10q-205 0 -305 129l116 98q84 -92 196 -92q47 0 77 20t30 53q0 26 -24.5 45t-94.5 47q-81 33 -126.5 76t-45.5 113q0 104 81 167.5t197 63.5q165 0 262 -104l-106 -106q-42 39 -80.5 57t-87.5 18 q-46 0 -74 -21.5t-28 -49.5q0 -27 24 -44t99 -48q82 -33 125 -75.5t43 -113.5q0 -106 -81.5 -169.5t-196.5 -63.5z"/>
<glyph glyph-name="scaron" d="M262 595l-81 157h110l61 -66l97 66h122l-165 -157h-144zM217 -12q-65 0 -130.5 25t-110.5 72l88 91q72 -72 164 -72q64 0 64 47q0 23 -62 50q-38 16 -60.5 28t-47.5 31t-36.5 43t-11.5 55q0 82 58.5 135t156.5 53q61 0 118 -22.5t93 -54.5l-82 -96q-72 57 -140 57 q-28 0 -43.5 -12t-15.5 -33q0 -15 17 -27t54 -29q33 -15 53.5 -26t45 -29.5t36.5 -42.5t12 -54q0 -87 -61.5 -138t-158.5 -51z" unicode="š"/>
<glyph glyph-name="Ydieresis" horiz-adv-x="650" unicode="Ÿ" d="M257 755l37 135h146l-37 -135h-146zM471 755l37 135h146l-37 -135h-146zM169 0l74 276l-145 424h171l82 -290l240 290h186l-383 -438l-71 -262h-154z"/>
<glyph glyph-name="Zcaron" horiz-adv-x="689" unicode="Ž" d="M391 755l-81 157h110l61 -66l97 66h122l-165 -157h-144zM-19 0l31 117l492 448h-360l37 135h568l-32 -117l-492 -448h375l-36 -135h-583z"/>
<glyph glyph-name="zcaron" horiz-adv-x="557" unicode="ž" d="M280 595l-81 157h110l61 -66l97 66h122l-165 -157h-144zM-27 0l29 107l351 306h-260l33 123h454l-29 -107l-352 -306h273l-33 -123h-466z"/>
<glyph glyph-name="florin" horiz-adv-x="543" unicode="ƒ" d="M61 -9q-49 0 -90 9l33 122q24 -6 47 -6q46 0 74 62l74 166h-72l34 125h94l38 86q67 154 204 154q74 0 122 -20l-33 -124q-35 16 -78 16q-55 0 -86 -70l-19 -42h120l-34 -125h-142l-94 -212q-62 -141 -192 -141z"/>
<glyph glyph-name="circumflex" d="M143 595l165 157h144l81 -157h-110l-61 66l-97 -66h-122z" unicode="ˆ"/>
<glyph glyph-name="caron" d="M262 595l-81 157h110l61 -66l97 66h122l-165 -157h-144z" unicode="ˇ"/>
<glyph glyph-name="breve" d="M359 593q-83 0 -126.5 45t-43.5 109v5h104q2 -25 22.5 -42.5t54.5 -17.5q52 0 93 60h105q-23 -72 -81 -115.5t-128 -43.5z" unicode="˘"/>
<glyph glyph-name="dotaccent" d="M264 595l37 135h150l-37 -135h-150z" unicode="˙"/>
<glyph glyph-name="ring" d="M359 648q30 0 49 23.5t19 54.5q0 22 -13 36t-35 14q-30 0 -49 -23.5t-19 -54.5q0 -22 13 -36t35 -14zM357 593q-50 0 -80 29.5t-30 74.5q0 55 39 94.5t95 39.5q50 0 80 -29.5t30 -74.5q0 -55 -39 -94.5t-95 -39.5z" unicode="˚"/>
<glyph glyph-name="ogonek" d="M232 -164q-28 -2 -38 -2q-137 0 -137 82q0 41 38 94h104q-20 -35 -20 -60q0 -43 71 -47z" unicode="˛"/>
<glyph glyph-name="tilde" d="M220 588l-80 40q27 61 67 97t86 36q40 0 79 -29q36 -26 53 -26q37 0 70 59l80 -40q-27 -61 -67 -97t-86 -36q-38 0 -79 29q-36 26 -53 26q-37 0 -70 -59z" unicode="˜"/>
<glyph glyph-name="hungarumlaut" d="M123 595l159 177l113 -57l-161 -120h-111zM318 595l161 177l113 -57l-163 -120h-111z" unicode="˝"/>
<glyph glyph-name="Omega" horiz-adv-x="782" unicode="Ω" d="M654 0h-285l60 223q87 12 143.5 82.5t56.5 151.5q0 59 -40 97t-108 38q-101 0 -172 -72t-71 -169q0 -48 26 -84.5t74 -43.5q-19 -75 -59 -223h-284q28 106 31 117h179l11 39q-59 17 -90.5 72.5t-31.5 123.5q0 111 61 195t152.5 124t196.5 40q117 0 195 -66.5t78 -168.5 q0 -105 -73.5 -200t-186.5 -120l-11 -39h179q-5 -18 -15 -57.5t-16 -59.5z"/>
<glyph glyph-name="pi" d="M250 395l171 255h-340zM451 95v510l-172 -256zM50 95l170 254l-170 256v-510zM81 49h340l-171 255zM0 0v700h500v-700h-500z" unicode="π"/>
<glyph glyph-name="afii10023" horiz-adv-x="665" unicode="Ё" d="M293 755l37 135h146l-37 -135h-146zM507 755l37 135h146l-37 -135h-146zM12 0l188 700h523l-37 -137h-370l-38 -143h325l-37 -135h-325l-40 -148h376l-37 -137h-528z"/>
<glyph glyph-name="afii10051" horiz-adv-x="848" unicode="Ђ" d="M488 -52q-77 0 -127 20l49 129q21 -7 53 -7q68 0 109 36.5t41 99.5q0 37 -26.5 62.5t-71.5 25.5q-90 0 -161 -54l-70 -260h-154l152 563h-191l37 137h583l-36 -137h-240l-44 -163q101 56 200 56q84 0 137.5 -56t53.5 -142q0 -131 -84.5 -220.5t-209.5 -89.5z"/>
<glyph glyph-name="afii10052" horiz-adv-x="576" unicode="Ѓ" d="M344 755l161 177l128 -57l-161 -120h-128zM13 0l187 700h470l-36 -137h-316l-152 -563h-153z"/>
<glyph glyph-name="afii10053" horiz-adv-x="726" unicode="Є" d="M247 417h266l-31 -128h-255q5 -69 49.5 -117.5t118.5 -48.5q100 0 180 80l88 -100q-113 -115 -271 -115q-145 0 -235 81.5t-90 222.5q0 107 51.5 202.5t148.5 156.5t217 61q95 0 169.5 -39.5t110.5 -107.5l-124 -86q-57 96 -162 96q-80 0 -140.5 -44t-90.5 -114z"/>
<glyph glyph-name="afii10054" horiz-adv-x="636" unicode="Ѕ" d="M295 -10q-205 0 -305 129l116 98q84 -92 196 -92q47 0 77 20t30 53q0 26 -24.5 45t-94.5 47q-81 33 -126.5 76t-45.5 113q0 104 81 167.5t197 63.5q165 0 262 -104l-106 -106q-42 39 -80.5 57t-87.5 18q-46 0 -74 -21.5t-28 -49.5q0 -27 24 -44t99 -48q82 -33 125 -75.5 t43 -113.5q0 -106 -81.5 -169.5t-196.5 -63.5z"/>
<glyph glyph-name="afii10055" horiz-adv-x="336" unicode="І" d="M19 0l188 700h154l-188 -700h-154z"/>
<glyph glyph-name="afii10056" horiz-adv-x="336" unicode="Ї" d="M107 755l37 135h146l-37 -135h-146zM321 755l37 135h146l-37 -135h-146zM19 0l188 700h154l-188 -700h-154z"/>
<glyph glyph-name="afii10057" horiz-adv-x="575" unicode="Ј" d="M188 -10q-69 0 -129.5 30t-97.5 87l109 95q55 -69 126 -69q55 0 94 39q17 17 30 46t31 97l103 385h158l-113 -422q-22 -85 -43.5 -130.5t-58.5 -82.5q-75 -75 -209 -75z"/>
<glyph glyph-name="afii10058" horiz-adv-x="1110" unicode="Љ" d="M642 137h116q75 0 120 29t45 87q0 36 -28.5 58t-78.5 22h-121zM35 -9q-75 0 -109 17l45 118q18 -6 49 -6q21 0 35.5 4.5t39 28t46.5 67.5t53 130t64 209l38 141h496l-63 -238h103q116 0 182.5 -53.5t66.5 -139.5q0 -127 -92.5 -198t-242.5 -71h-294l150 563h-195l-20 -71 q-37 -131 -73.5 -223.5t-68 -146.5t-68.5 -83.5t-68.5 -38.5t-73.5 -9z"/>
<glyph glyph-name="afii10059" horiz-adv-x="1115" unicode="Њ" d="M635 134h136q73 0 115.5 27t42.5 82q0 34 -27 54.5t-77 20.5h-140zM12 0l188 700h154l-70 -260h280l70 260h154l-70 -260h131q109 0 173 -51t64 -133q0 -121 -88 -188.5t-232 -67.5h-320l85 312h-280l-85 -312h-154z"/>
<glyph glyph-name="afii10060" horiz-adv-x="852" unicode="Ћ" d="M131 0l151 563h-190l36 137h583l-36 -137h-240l-43 -160q104 52 199 52q89 0 140.5 -40t51.5 -114q0 -30 -9 -66l-63 -235h-154l48 178q9 33 9 57q0 79 -91 79t-168 -48l-71 -266h-153z"/>
<glyph glyph-name="afii10061" horiz-adv-x="727" unicode="Ќ" d="M389 755l161 177l128 -57l-161 -120h-128zM12 0l188 700h154l-83 -310l346 310h208l-341 -293l165 -407h-169l-118 315l-145 -124l-51 -191h-154z"/>
<glyph glyph-name="afii10062" horiz-adv-x="709" unicode="Ў" d="M468 748q-67 0 -108.5 38t-42.5 104l90 16q11 -64 66 -64q58 0 88 64l86 -16q-20 -67 -66.5 -104.5t-112.5 -37.5zM144 -11q-98 0 -156 42l91 112q31 -23 77 -23q60 0 102 57l4 5l-144 518h164l91 -364l264 364h175l-397 -541q-67 -91 -131.5 -130.5t-139.5 -39.5z"/>
<glyph glyph-name="afii10145" horiz-adv-x="746" unicode="Џ" d="M188 -146l39 146h-215l187 700h154l-151 -564h271l151 564h154l-188 -700h-214l-39 -146h-149z"/>
<glyph glyph-name="afii10017" horiz-adv-x="765" unicode="А" d="M307 293h186l-32 231zM-57 0l489 705h148l111 -705h-158l-22 157h-296l-106 -157h-166z"/>
<glyph glyph-name="afii10018" horiz-adv-x="700" unicode="Б" d="M202 136h148q69 0 110.5 27.5t41.5 80.5q0 33 -26.5 54t-73.5 21h-151zM13 0l187 700h520l-35 -134h-366l-35 -126h138q110 0 173.5 -50.5t63.5 -133.5q0 -123 -90 -189.5t-237 -66.5h-319z"/>
<glyph glyph-name="afii10019" horiz-adv-x="717" unicode="В" d="M274 417h155q126 0 126 85q0 29 -24 46t-73 17h-145zM198 135h181q58 0 91.5 23.5t33.5 64.5q0 31 -24.5 48.5t-71.5 17.5h-169zM12 0l188 700h272q118 0 177.5 -48.5t59.5 -123.5q0 -68 -40.5 -113t-109.5 -60q98 -46 98 -142t-79.5 -154.5t-221.5 -58.5h-344z"/>
<glyph glyph-name="afii10020" horiz-adv-x="576" unicode="Г" d="M13 0l187 700h470l-36 -137h-316l-152 -563h-153z"/>
<glyph glyph-name="afii10021" horiz-adv-x="769" unicode="Д" d="M215 137h277l115 427h-208l-26 -90q-63 -216 -158 -337zM-87 -146l74 283h61q64 79 112.5 179t96.5 275l29 109h511l-151 -563h84l-95 -283h-130l39 146h-444l-51 -146h-136z"/>
<glyph glyph-name="afii10022" horiz-adv-x="665" unicode="Е" d="M12 0l188 700h523l-37 -137h-370l-38 -143h325l-37 -135h-325l-40 -148h376l-37 -137h-528z"/>
<glyph glyph-name="afii10024" horiz-adv-x="1071" unicode="Ж" d="M-75 0l380 419l-165 281h169l176 -322l86 322h154l-84 -314l333 314h195l-335 -302l156 -398h-172l-113 291l-117 -101l-50 -190h-154l53 200l-56 94l-257 -294h-199z"/>
<glyph glyph-name="afii10025" horiz-adv-x="619" unicode="З" d="M258 -12q-192 0 -278 131l106 88q64 -84 174 -84q61 0 97.5 26.5t36.5 65.5q0 75 -115 75h-69l32 126h68q66 0 105.5 23.5t39.5 66.5q0 34 -27 53t-70 19q-83 0 -164 -66l-80 98q111 102 262 102q105 0 170 -51t65 -127q0 -72 -46.5 -118.5t-129.5 -66.5q51 -18 82.5 -55 t31.5 -91q0 -94 -83 -154.5t-208 -60.5z"/>
<glyph glyph-name="afii10026" horiz-adv-x="765" unicode="И" d="M12 0l188 700h151l-122 -458l424 458h144l-187 -700h-152l121 458l-424 -458h-143z"/>
<glyph glyph-name="afii10027" horiz-adv-x="765" unicode="Й" d="M12 0l188 700h151l-122 -458l424 458h144l-187 -700h-152l121 458l-424 -458h-143zM503 748q-67 0 -108.5 38t-42.5 104l90 16q11 -64 66 -64q58 0 88 64l86 -16q-20 -67 -66.5 -104.5t-112.5 -37.5z"/>
<glyph glyph-name="afii10028" horiz-adv-x="727" unicode="К" d="M12 0l188 700h154l-83 -310l346 310h208l-341 -293l165 -407h-169l-118 315l-145 -124l-51 -191h-154z"/>
<glyph glyph-name="afii10029" horiz-adv-x="760" unicode="Л" d="M35 -9q-75 0 -109 17l45 118q18 -6 49 -6q21 0 35.5 4.5t39 28t46.5 67.5t53 130t64 209l38 141h496l-187 -700h-153l150 563h-195l-20 -71q-37 -131 -73.5 -223.5t-68 -146.5t-68.5 -83.5t-68.5 -38.5t-73.5 -9z"/>
<glyph glyph-name="afii10030" horiz-adv-x="868" unicode="М" d="M12 0l188 700h160l101 -296l261 296h178l-188 -700h-156l122 457l-274 -299h-4l-112 296l-122 -454h-154z"/>
<glyph glyph-name="afii10031" horiz-adv-x="756" unicode="Н" d="M12 0l188 700h154l-74 -277h280l74 277h154l-188 -700h-154l76 281h-280l-76 -281h-154z"/>
<glyph glyph-name="afii10032" horiz-adv-x="832" unicode="О" d="M405 130q105 0 174 82.5t69 179.5q0 80 -47 129t-131 49q-105 0 -174 -82.5t-69 -179.5q0 -80 47 -129t131 -49zM387 -12q-143 0 -231.5 88t-88.5 222q0 105 52 199.5t150 154.5t219 60q143 0 231.5 -88t88.5 -222q0 -105 -52 -199.5t-150 -154.5t-219 -60z"/>
<glyph glyph-name="afii10033" horiz-adv-x="746" unicode="П" d="M12 0l188 700h578l-188 -700h-155l151 563h-270l-150 -563h-154z"/>
<glyph glyph-name="afii10034" horiz-adv-x="679" unicode="Р" d="M259 347h105q78 0 124.5 33.5t46.5 91.5q0 35 -23 58q-31 31 -96 31h-100zM12 0l188 700h222q149 0 220 -71q54 -54 54 -144q0 -127 -96 -200t-244 -73h-133l-57 -212h-154z"/>
<glyph glyph-name="afii10035" horiz-adv-x="726" unicode="С" d="M397 -12q-145 0 -237.5 83.5t-92.5 221.5q0 169 125.5 294t300.5 125q189 0 280 -149l-127 -89q-34 48 -73.5 72t-98.5 24q-97 0 -172 -80.5t-75 -190.5q0 -75 48 -122t123 -47q47 0 83.5 17t80.5 52l100 -104q-116 -107 -265 -107z"/>
<glyph glyph-name="afii10036" horiz-adv-x="620" unicode="Т" d="M159 0l150 558h-213l38 142h580l-38 -142h-213l-150 -558h-154z"/>
<glyph glyph-name="afii10037" horiz-adv-x="709" unicode="У" d="M144 -11q-98 0 -156 42l91 112q31 -23 77 -23q60 0 102 57l4 5l-144 518h164l91 -364l264 364h175l-397 -541q-67 -91 -131.5 -130.5t-139.5 -39.5z"/>
<glyph glyph-name="afii10038" horiz-adv-x="922" unicode="Ф" d="M509 186h23q96 0 157.5 54t61.5 142q0 64 -39 102.5t-111 41.5zM354 186l92 340h-19q-97 0 -158 -54.5t-61 -142.5q0 -63 38 -101.5t108 -41.5zM296 -29l21 79q-130 8 -199.5 80t-69.5 183q0 150 110 249.5t289 99.5h35l18 66h155l-18 -66q132 -7 202.5 -77.5 t70.5 -180.5q0 -151 -109.5 -252.5t-288.5 -101.5h-39l-21 -79h-156z"/>
<glyph glyph-name="afii10039" horiz-adv-x="700" unicode="Х" d="M-51 0l338 363l-150 337h173l88 -225l196 225h197l-329 -354l155 -346h-173l-94 235l-204 -235h-197z"/>
<glyph glyph-name="afii10040" horiz-adv-x="750" unicode="Ц" d="M486 -146l39 146h-513l188 700h153l-152 -563h272l151 563h154l-152 -563h84l-94 -283h-130z"/>
<glyph glyph-name="afii10041" horiz-adv-x="713" unicode="Ч" d="M405 0l70 264q-98 -49 -199 -49q-86 0 -130 46.5t-44 123.5q0 36 11 77l65 238h153l-60 -226q-7 -25 -7 -48q0 -73 87 -73q78 0 160 48l81 299h153l-187 -700h-153z"/>
<glyph glyph-name="afii10042" horiz-adv-x="1098" unicode="Ш" d="M12 0l187 700h154l-152 -563h236l151 563h153l-151 -563h236l151 563h153l-187 -700h-931z"/>
<glyph glyph-name="afii10043" horiz-adv-x="1103" unicode="Щ" d="M839 -146l40 146h-867l187 700h154l-152 -563h236l151 563h153l-151 -563h236l151 563h154l-151 -563h84l-94 -283h-131z"/>
<glyph glyph-name="afii10044" horiz-adv-x="775" unicode="Ъ" d="M307 137h116q75 0 120 29t45 87q0 36 -28.5 58t-78.5 22h-121zM117 0l151 563h-168l36 137h321l-63 -238h103q116 0 182.5 -53.5t66.5 -139.5q0 -127 -92.5 -198t-242.5 -71h-294z"/>
<glyph glyph-name="afii10045" horiz-adv-x="965" unicode="Ы" d="M657 0l187 700h153l-187 -700h-153zM202 137h116q75 0 120 29t45 87q0 36 -28.5 58t-78.5 22h-121zM12 0l187 700h153l-63 -238h103q116 0 182.5 -53.5t66.5 -139.5q0 -127 -92.5 -198t-242.5 -71h-294z"/>
<glyph glyph-name="afii10046" horiz-adv-x="670" unicode="Ь" d="M202 137h116q75 0 120 29t45 87q0 36 -28.5 58t-78.5 22h-121zM12 0l187 700h153l-63 -238h103q116 0 182.5 -53.5t66.5 -139.5q0 -127 -92.5 -198t-242.5 -71h-294z"/>
<glyph glyph-name="afii10047" horiz-adv-x="726" unicode="Э" d="M284 -12q-97 0 -172 40.5t-111 110.5l124 85q55 -97 164 -97q82 0 143.5 46t86.5 116h-262l29 128h251q-9 72 -53 115t-114 43q-103 0 -180 -79l-88 99q114 117 270 117q141 0 233.5 -84t92.5 -224q0 -107 -51 -201.5t-147 -154.5t-216 -60z"/>
<glyph glyph-name="afii10048" horiz-adv-x="1083" unicode="Ю" d="M674 124q93 0 159.5 79.5t66.5 189.5q0 80 -43.5 131t-116.5 51q-93 0 -159.5 -80t-66.5 -190q0 -79 44 -130t116 -51zM659 -13q-133 0 -215 84t-87 213h-116l-76 -284h-154l188 700h153l-75 -281h99q41 128 147 211t237 83q135 0 217 -86t82 -218q0 -172 -117 -297 t-283 -125z"/>
<glyph glyph-name="afii10049" horiz-adv-x="722" unicode="Я" d="M378 354h129l56 211h-126q-83 0 -129 -33t-46 -91q0 -42 32 -64.5t84 -22.5zM-33 0l253 258q-118 48 -118 177q0 122 93 193.5t246 71.5h313l-187 -700h-154l62 231h-105l-212 -231h-191z"/>
<glyph glyph-name="afii10065" horiz-adv-x="588" unicode="а" d="M228 94q46 0 84 31.5t51 76.5l4 14q-49 19 -100 19q-48 0 -78.5 -23t-30.5 -61q0 -25 19 -41t51 -16zM163 -10q-69 0 -112.5 40.5t-43.5 103.5q0 90 65 141.5t166 51.5q74 0 151 -24l2 7q6 24 6 40q0 63 -101 63q-72 0 -143 -29l-24 120q91 38 199 38q107 0 162 -42.5 t55 -122.5q0 -35 -12 -81l-79 -296h-147l16 62q-67 -72 -160 -72z"/>
<glyph glyph-name="afii10066" horiz-adv-x="650" unicode="б" d="M305 118q62 0 108.5 48.5t46.5 114.5q0 52 -31.5 84t-84.5 32q-63 0 -108 -48.5t-45 -115.5q0 -50 30.5 -82.5t83.5 -32.5zM299 -13q-121 0 -187.5 71t-66.5 190q0 70 15.5 137t48.5 130t91.5 107.5t136.5 58.5l281 49l14 -120l-295 -56q-128 -25 -156 -133q27 32 80 59 t122 27q99 0 163 -59t64 -159q0 -124 -92 -213t-219 -89z"/>
<glyph glyph-name="afii10067" horiz-adv-x="598" unicode="в" d="M235 319h88q47 0 73 17.5t26 47.5q0 48 -74 48h-83zM178 108h104q46 0 73 18.5t27 49.5q0 51 -79 51h-93zM-3 0l143 536h249q93 0 138.5 -36.5t45.5 -93.5q0 -52 -34 -87.5t-92 -49.5q39 -12 63 -40t24 -68q0 -72 -61 -116.5t-175 -44.5h-301z"/>
<glyph glyph-name="afii10068" horiz-adv-x="464" unicode="г" d="M-3 0l143 536h383l-33 -126h-231l-110 -410h-152z"/>
<glyph glyph-name="afii10069" horiz-adv-x="650" unicode="д" d="M195 126h182l77 285h-138l-11 -43q-15 -61 -49 -134.5t-61 -107.5zM-80 -119l64 245h52q100 129 156 357l13 53h433l-110 -410h76l-81 -245h-128l33 119h-333l-43 -119h-132z"/>
<glyph glyph-name="afii10070" horiz-adv-x="607" unicode="е" d="M197 310h233q5 17 5 35q0 35 -22 57t-66 22q-51 0 -91 -31t-59 -83zM289 -12q-116 0 -182 63.5t-66 174.5q0 79 38.5 151.5t113 120.5t166.5 48q102 0 160.5 -58.5t58.5 -150.5q0 -57 -27 -122h-367q8 -105 122 -105q58 0 119 43l70 -94q-85 -71 -206 -71z"/>
<glyph glyph-name="afii10072" horiz-adv-x="897" unicode="ж" d="M-68 0l293 329l-120 207h156l125 -236l63 236h151l-63 -236l249 236h174l-250 -227l110 -309h-155l-78 208l-98 -86l-32 -122h-150l34 131l-46 77l-180 -208h-183z"/>
<glyph glyph-name="afii10073" horiz-adv-x="522" unicode="з" d="M208 -12q-144 0 -232 78l76 99q73 -58 154 -58q104 0 104 62q0 50 -85 50h-68l25 101h61q42 0 66.5 19t24.5 47q0 19 -19 31t-54 12q-38 0 -82.5 -14.5t-75.5 -38.5l-50 88q107 83 240 83q92 0 143.5 -37t51.5 -94q0 -94 -109 -138q82 -31 82 -107q0 -81 -64 -132 t-189 -51z"/>
<glyph glyph-name="afii10074" horiz-adv-x="642" unicode="и" d="M-3 0l143 536h146l-86 -322l305 322h140l-143 -536h-146l85 322l-304 -322h-140z"/>
<glyph glyph-name="afii10075" horiz-adv-x="642" unicode="й" d="M-3 0l143 536h146l-86 -322l305 322h140l-143 -536h-146l85 322l-304 -322h-140zM405 588q-64 0 -102.5 37t-39.5 102l84 15q11 -62 64 -62q56 0 84 62l81 -15q-20 -66 -64 -102.5t-107 -36.5z"/>
<glyph glyph-name="afii10076" horiz-adv-x="588" unicode="к" d="M-2 0l143 536h151l-60 -223l238 223h185l-257 -229l117 -307h-162l-78 203l-94 -81l-32 -122h-151z"/>
<glyph glyph-name="afii10077" horiz-adv-x="635" unicode="л" d="M18 -7q-50 0 -79 12l38 117q21 -4 32 -4q23 0 37.5 8t36 38.5t45.5 100.5t55 185l23 86h432l-143 -536h-150l110 411h-142l-15 -52q-24 -87 -46.5 -149.5t-46 -102.5t-43 -63.5t-46 -34.5t-46 -13.5t-52.5 -2.5z"/>
<glyph glyph-name="afii10078" horiz-adv-x="737" unicode="м" d="M-3 0l143 536h134l95 -218l203 218h168l-143 -536h-151l86 322l-209 -211l-93 209l-85 -320h-148z"/>
<glyph glyph-name="afii10079" horiz-adv-x="631" unicode="н" d="M-3 0l143 536h152l-54 -202h190l55 202h151l-143 -536h-151l55 208h-191l-55 -208h-152z"/>
<glyph glyph-name="afii10080" horiz-adv-x="652" unicode="о" d="M307 118q66 0 110 57t44 119q0 58 -31.5 90t-84.5 32q-66 0 -110 -57t-44 -119q0 -58 31.5 -90t84.5 -32zM300 -12q-117 0 -187.5 69.5t-70.5 178.5q0 122 91.5 216t218.5 94q117 0 187.5 -69.5t70.5 -178.5q0 -122 -91.5 -216t-218.5 -94z"/>
<glyph glyph-name="afii10081" horiz-adv-x="626" unicode="п" d="M-3 0l143 536h489l-143 -536h-151l110 410h-187l-110 -410h-151z"/>
<glyph glyph-name="afii10082" horiz-adv-x="674" unicode="р" d="M317 118q63 0 111 54.5t48 133.5q0 52 -30.5 82t-81.5 30q-64 0 -113 -55t-49 -131q0 -51 32 -82.5t83 -31.5zM-46 -160l186 696h152l-16 -58q73 68 151 68q90 0 148 -62t58 -168q0 -139 -89.5 -232.5t-206.5 -93.5q-110 0 -168 88l-63 -238h-152z"/>
<glyph glyph-name="afii10083" horiz-adv-x="552" unicode="с" d="M292 -12q-110 0 -180 66.5t-70 175.5q0 131 93.5 223.5t222.5 92.5q152 0 220 -118l-116 -82q-23 35 -48.5 52.5t-67.5 17.5q-60 0 -107 -56t-47 -130q0 -51 30 -82t75 -31q59 0 121 53l78 -99q-46 -41 -93 -62t-111 -21z"/>
<glyph glyph-name="afii10084" horiz-adv-x="513" unicode="т" d="M114 0l110 410h-172l33 126h485l-33 -126h-163l-110 -410h-150z"/>
<glyph glyph-name="afii10085" horiz-adv-x="592" unicode="у" d="M85 -163q-72 0 -125 37l81 110q28 -21 59 -21q33 0 59 33l-66 540h155l25 -364l201 364h164l-332 -549q-53 -82 -103 -116t-118 -34z"/>
<glyph glyph-name="afii10086" horiz-adv-x="909" unicode="ф" d="M573 114q68 0 109 60.5t41 147.5q0 42 -19.5 69.5t-58.5 27.5t-76 -25l-69 -255q28 -25 73 -25zM274 114q38 0 77 25l68 255q-30 25 -73 25q-68 0 -109 -63t-41 -148q0 -42 19.5 -68t58.5 -26zM271 -160l50 191q-61 -41 -122 -41q-75 0 -116 51.5t-41 149.5 q0 62 18 122.5t52 112.5t89.5 84t124.5 32q67 0 119 -50l64 238h150l-63 -233q65 45 124 45q74 0 115.5 -52.5t41.5 -151.5q0 -61 -18 -121.5t-52 -112t-89.5 -83t-123.5 -31.5q-71 0 -121 45l-52 -195h-150z"/>
<glyph glyph-name="afii10087" horiz-adv-x="578" unicode="х" d="M-50 0l262 280l-117 256h162l60 -150l126 150h181l-251 -271l118 -265h-162l-62 159l-136 -159h-181z"/>
<glyph glyph-name="afii10088" horiz-adv-x="641" unicode="ц" d="M385 -119l33 119h-421l143 536h152l-110 -410h185l110 410h152l-110 -410h75l-81 -245h-128z"/>
<glyph glyph-name="afii10089" horiz-adv-x="584" unicode="ч" d="M303 0l49 191q-73 -32 -154 -32q-67 0 -105.5 36t-38.5 96q0 23 8 53l52 192h151l-43 -164q-7 -28 -7 -38q0 -51 55 -51q66 0 116 31l59 222h151l-143 -536h-150z"/>
<glyph glyph-name="afii10090" horiz-adv-x="906" unicode="ш" d="M-3 0l143 536h151l-110 -410h158l110 410h151l-110 -410h158l110 410h151l-143 -536h-769z"/>
<glyph glyph-name="afii10091" horiz-adv-x="921" unicode="щ" d="M665 -119l33 119h-701l143 536h151l-110 -410h158l110 410h151l-110 -410h158l110 410h151l-110 -410h75l-81 -245h-128z"/>
<glyph glyph-name="afii10092" horiz-adv-x="642" unicode="ъ" d="M260 115h80q52 0 83.5 20.5t31.5 59.5q0 24 -20 38.5t-53 14.5h-86zM79 0l110 410h-139q3 12 14.5 57t18.5 69h290l-49 -184h90q88 0 139 -41t51 -107q0 -96 -70.5 -150t-184.5 -54h-270z"/>
<glyph glyph-name="afii10093" horiz-adv-x="819" unicode="ы" d="M528 0l143 536h151l-143 -536h-151zM179 115h70q52 0 83.5 20.5t31.5 59.5q0 24 -20 38.5t-53 14.5h-76zM-3 0l143 536h152l-49 -184h80q88 0 139 -41t51 -107q0 -96 -70.5 -150t-184.5 -54h-261z"/>
<glyph glyph-name="afii10094" horiz-adv-x="561" unicode="ь" d="M179 115h80q52 0 83.5 20.5t31.5 59.5q0 24 -20 38.5t-53 14.5h-86zM-3 0l143 536h152l-49 -184h90q88 0 139 -41t51 -107q0 -96 -70.5 -150t-184.5 -54h-271z"/>
<glyph glyph-name="afii10095" horiz-adv-x="560" unicode="э" d="M211 -12q-86 0 -144 37t-87 95l115 71q39 -79 116 -79q49 0 89 30.5t59 78.5h-178l24 99h166q-6 49 -36.5 75.5t-73.5 26.5q-69 0 -122 -53l-85 89q86 89 220 89q103 0 173.5 -70.5t70.5 -178.5q0 -131 -90 -220.5t-217 -89.5z"/>
<glyph glyph-name="afii10096" horiz-adv-x="879" unicode="ю" d="M544 118q66 0 106.5 53.5t40.5 125.5q0 56 -26.5 88t-77.5 32q-65 0 -106.5 -55.5t-41.5 -126.5q0 -56 27 -86.5t78 -30.5zM538 -12q-107 0 -170 60t-72 158h-92l-55 -206h-152l143 536h151l-55 -207h75q32 94 109.5 156t178.5 62q114 0 176 -68.5t62 -175.5 q0 -128 -84.5 -221.5t-214.5 -93.5z"/>
<glyph glyph-name="afii10097" horiz-adv-x="601" unicode="я" d="M297 272h87l39 144h-84q-58 0 -90 -22.5t-32 -63.5q0 -58 80 -58zM-34 0l181 193q-40 16 -61.5 52t-21.5 80q0 96 72 153.5t190 57.5h278l-143 -536h-151l44 162h-57l-149 -162h-182z"/>
<glyph glyph-name="afii10071" horiz-adv-x="607" unicode="ё" d="M195 595l37 135h146l-37 -135h-146zM409 595l37 135h146l-37 -135h-146zM197 310h233q5 17 5 35q0 35 -22 57t-66 22q-51 0 -91 -31t-59 -83zM289 -12q-116 0 -182 63.5t-66 174.5q0 79 38.5 151.5t113 120.5t166.5 48q102 0 160.5 -58.5t58.5 -150.5q0 -57 -27 -122 h-367q8 -105 122 -105q58 0 119 43l70 -94q-85 -71 -206 -71z"/>
<glyph glyph-name="afii10099" horiz-adv-x="622" unicode="ђ" d="M309 -12q-67 0 -102 14l43 123q19 -7 53 -7q40 0 64.5 33t40.5 95q7 24 7 51q0 39 -18 64t-56 25q-44 0 -73.5 -28.5t-42.5 -78.5l-76 -279h-152l146 552h-68l28 105h68l20 73h152l-19 -73h175l-28 -105h-175l-24 -94q74 66 146 66q77 0 119 -48.5t42 -121.5 q0 -15 -2.5 -33t-4.5 -31.5t-8.5 -36.5t-9 -32.5t-10.5 -36t-9 -30.5q-48 -166 -226 -166z"/>
<glyph glyph-name="afii10100" horiz-adv-x="464" unicode="ѓ" d="M228 595l161 177l128 -57l-161 -120h-128zM-3 0l143 536h383l-33 -126h-231l-110 -410h-152z"/>
<glyph glyph-name="afii10101" horiz-adv-x="562" unicode="є" d="M287 -12q-105 0 -175 66t-70 173q0 133 90.5 226.5t217.5 93.5q83 0 139 -36.5t86 -94.5l-111 -67q-35 73 -115 73q-48 0 -87.5 -29t-58.5 -75h183l-24 -99h-175q6 -52 36.5 -79t75.5 -27q71 0 129 56l85 -87q-89 -94 -226 -94z"/>
<glyph glyph-name="afii10102" d="M217 -12q-65 0 -130.5 25t-110.5 72l88 91q72 -72 164 -72q64 0 64 47q0 23 -62 50q-38 16 -60.5 28t-47.5 31t-36.5 43t-11.5 55q0 82 58.5 135t156.5 53q61 0 118 -22.5t93 -54.5l-82 -96q-72 57 -140 57q-28 0 -43.5 -12t-15.5 -33q0 -15 17 -27t54 -29 q33 -15 53.5 -26t45 -29.5t36.5 -42.5t12 -54q0 -87 -61.5 -138t-158.5 -51z" unicode="ѕ"/>
<glyph glyph-name="afii10103" horiz-adv-x="302" unicode="і" d="M3 0l144 536h152l-144 -536h-152zM159 595l37 135h160l-37 -135h-160z"/>
<glyph glyph-name="afii10104" horiz-adv-x="302" unicode="ї" d="M3 0l144 536h152l-144 -536h-152zM48 595l37 135h146l-37 -135h-146zM262 595l37 135h146l-37 -135h-146z"/>
<glyph glyph-name="afii10105" horiz-adv-x="301" unicode="ј" d="M159 595l36 135h160l-36 -135h-160zM-46 -163q-46 0 -83 8l32 119q20 -5 37 -5q25 0 44 19.5t28 53.5l135 504h152l-140 -523q-48 -176 -205 -176z"/>
<glyph glyph-name="afii10106" horiz-adv-x="907" unicode="љ" d="M525 115h80q52 0 83.5 20.5t31.5 59.5q0 24 -20 38.5t-53 14.5h-86zM18 -7q-50 0 -79 12l38 117q21 -4 32 -4q23 0 37.5 8t36 38.5t45.5 100.5t55 185l23 86h432l-49 -184h90q88 0 139 -41t51 -107q0 -96 -70.5 -150t-184.5 -54h-269l110 411h-142l-15 -52 q-24 -87 -46.5 -149.5t-46 -102.5t-43 -63.5t-46 -34.5t-46 -13.5t-52.5 -2.5z"/>
<glyph glyph-name="afii10107" horiz-adv-x="903" unicode="њ" d="M520 117h79q54 0 85.5 18t31.5 55q0 25 -22 38.5t-56 13.5h-83zM-3 0l143 536h152l-51 -194h190l52 194h150l-51 -194h91q89 0 140.5 -39t51.5 -105q0 -94 -70.5 -146t-184.5 -52h-270l58 216h-191l-58 -216h-152z"/>
<glyph glyph-name="afii10108" horiz-adv-x="622" unicode="ћ" d="M-3 0l146 552h-68l28 105h68l20 73h152l-19 -73h175l-28 -105h-175l-24 -94q74 66 146 66t115 -42t43 -114q0 -34 -18 -102l-72 -266h-152l74 272q7 26 7 48q0 66 -74 66q-44 0 -73.5 -28.5t-42.5 -78.5l-76 -279h-152z"/>
<glyph glyph-name="afii10109" horiz-adv-x="588" unicode="ќ" d="M290 595l161 177l128 -57l-161 -120h-128zM-2 0l143 536h151l-60 -223l238 223h185l-257 -229l117 -307h-162l-78 203l-94 -81l-32 -122h-151z"/>
<glyph glyph-name="afii10110" horiz-adv-x="592" unicode="ў" d="M363 588q-64 0 -102.5 37t-39.5 102l84 15q11 -62 64 -62q56 0 84 62l81 -15q-20 -66 -64 -102.5t-107 -36.5zM85 -163q-72 0 -125 37l81 110q28 -21 59 -21q33 0 59 33l-66 540h155l25 -364l201 364h164l-332 -549q-53 -82 -103 -116t-118 -34z"/>
<glyph glyph-name="afii10193" horiz-adv-x="620" unicode="џ" d="M137 -119l32 119h-172l143 536h152l-109 -410h184l110 410h151l-142 -536h-173l-33 -119h-143z"/>
<glyph glyph-name="afii10050" horiz-adv-x="576" unicode="Ґ" d="M13 0l187 700h326l39 146h130l-56 -282h-321l-152 -564h-153z"/>
<glyph glyph-name="afii10098" horiz-adv-x="464" unicode="ґ" d="M-3 0l143 536h239l32 116h127l-48 -242h-231l-110 -410h-152z"/>
<glyph glyph-name="endash" horiz-adv-x="531" unicode="–" d="M44 239l38 142h428l-38 -142h-428z"/>
<glyph glyph-name="emdash" horiz-adv-x="901" unicode="—" d="M44 239l38 142h798l-38 -142h-798z"/>
<glyph glyph-name="quoteleft" horiz-adv-x="319" unicode="‘" d="M93 384l36 135q26 97 81 141t146 46l10 -63q-114 -10 -130 -99h62l-43 -160h-162z"/>
<glyph glyph-name="quoteright" horiz-adv-x="319" unicode="’" d="M87 378l-10 63q114 10 130 99h-62l43 160h162l-36 -135q-26 -97 -81 -141t-146 -46z"/>
<glyph glyph-name="quotesinglbase" horiz-adv-x="319" unicode="‚" d="M-51 -162l-10 63q114 10 130 99h-62l43 160h162l-36 -135q-26 -97 -81 -141t-146 -46z"/>
<glyph glyph-name="quotedblleft" horiz-adv-x="573" unicode="“" d="M94 383l36 135q26 97 81 141t146 46l10 -63q-114 -10 -130 -99h62l-43 -160h-162zM348 383l36 135q26 97 81 141t146 46l10 -63q-114 -10 -130 -99h62l-43 -160h-162z"/>
<glyph glyph-name="quotedblright" horiz-adv-x="573" unicode="”" d="M88 378l-10 63q114 10 130 99h-62l43 160h162l-36 -135q-26 -97 -81 -141t-146 -46zM342 378l-10 63q114 10 130 99h-62l43 160h162l-36 -135q-26 -97 -81 -141t-146 -46z"/>
<glyph glyph-name="quotedblbase" horiz-adv-x="573" unicode="„" d="M-51 -162l-10 63q114 10 130 99h-62l43 160h162l-36 -135q-26 -97 -81 -141t-146 -46zM203 -162l-10 63q114 10 130 99h-62l43 160h162l-36 -135q-26 -97 -81 -141t-146 -46z"/>
<glyph glyph-name="dagger" horiz-adv-x="412" unicode="†" d="M156 238l82 270l-123 -10l23 83l116 -10l22 129h92l-48 -129l122 10l-23 -83l-117 10l-62 -270h-84z"/>
<glyph glyph-name="daggerdbl" horiz-adv-x="412" unicode="‡" d="M88 0l48 129l-122 -10l22 83l116 -10l34 158l51 158l-122 -10l23 83l116 -10l22 129h92l-48 -129l122 10l-23 -83l-116 10l-33 -158l-52 -158l122 10l-22 -83l-116 10l-22 -129h-92z"/>
<glyph glyph-name="bullet" d="M246 200q-54 0 -85 31.5t-31 84.5q0 72 48 131t120 59q54 0 85 -31.5t31 -84.5q0 -72 -48 -131t-120 -59z" unicode="•"/>
<glyph glyph-name="ellipsis" horiz-adv-x="872" unicode="…" d="M7 0l42 156h158l-42 -156h-158zM286 0l42 156h158l-42 -156h-158zM565 0l42 156h158l-42 -156h-158z"/>
<glyph glyph-name="perthousand" horiz-adv-x="1288" unicode="‰" d="M651 79q39 0 64.5 37t25.5 80q0 33 -16.5 52t-45.5 19q-39 0 -64.5 -37t-25.5 -80q0 -33 16.5 -52t45.5 -19zM1059 79q39 0 64.5 37t25.5 80q0 33 -16.5 52t-45.5 19q-39 0 -64.5 -37t-25.5 -80q0 -33 16.5 -52t45.5 -19zM244 433q39 0 64.5 37t25.5 80q0 33 -16.5 52 t-45.5 19q-39 0 -64.5 -37t-25.5 -80q0 -33 16.5 -52t45.5 -19zM645 -8q-69 0 -111.5 42.5t-42.5 111.5q0 81 55 144.5t139 63.5q69 0 111.5 -42.5t42.5 -111.5q0 -81 -55 -144.5t-139 -63.5zM1053 -8q-69 0 -111.5 42.5t-42.5 111.5q0 81 55 144.5t139 63.5 q69 0 111.5 -42.5t42.5 -111.5q0 -81 -55 -144.5t-139 -63.5zM60 0l673 700h130l-673 -700h-130zM238 346q-69 0 -111.5 42.5t-42.5 111.5q0 81 55 144.5t139 63.5q69 0 111.5 -42.5t42.5 -111.5q0 -81 -55 -144.5t-139 -63.5z"/>
<glyph glyph-name="guilsinglleft" horiz-adv-x="373" unicode="‹" d="M154 31l-108 224l2 8l237 233l87 -80l-176 -171l80 -160z"/>
<glyph glyph-name="guilsinglright" horiz-adv-x="373" unicode="›" d="M86 31l-87 80l176 171l-80 160l122 54l108 -224l-2 -8z"/>
<glyph glyph-name="fraction" horiz-adv-x="520" unicode="⁄" d="M-138 -98l695 856h134l-695 -856h-134z"/>
<glyph glyph-name="Euro" horiz-adv-x="720" unicode="€" d="M396 -12q-113 0 -185.5 61.5t-86.5 167.5h-100l27 101h75q5 38 13 68h-70l27 101h73q45 102 130 163.5t197 61.5q195 0 253 -163l-131 -65q-22 47 -50.5 68t-79.5 21q-94 0 -147 -86h193l-27 -101h-204q-10 -27 -17 -68h203l-27 -101h-177q9 -44 40 -67t74 -23 q42 0 74 16.5t67 53.5l104 -90q-99 -119 -248 -119z"/>
<glyph glyph-name="afii61352" horiz-adv-x="1057" unicode="№" d="M908 360q29 0 50.5 26.5t21.5 64.5q0 27 -14 44.5t-38 17.5q-29 0 -50.5 -26.5t-21.5 -63.5q0 -28 14.5 -45.5t37.5 -17.5zM897 278q-61 0 -97 38t-36 96q0 74 51.5 128.5t124.5 54.5q60 0 96 -38t36 -95q0 -75 -51.5 -129.5t-123.5 -54.5zM703 128l25 95h277l-25 -95 h-277zM12 0l187 700h145l152 -423l113 423h155l-187 -700h-134l-160 437l-117 -437h-154z"/>
<glyph glyph-name="published" horiz-adv-x="830" unicode="℗" d="M389 355h66q31 0 49 16.5t18 42.5q0 28 -18.5 43.5t-50.5 15.5h-64v-118zM303 164v385h158q68 0 108 -36.5t40 -97.5q0 -64 -44 -99.5t-112 -35.5h-64v-116h-86zM435 28q136 0 228.5 94t92.5 229q0 134 -91.5 227.5t-227.5 93.5t-228.5 -94t-92.5 -229 q0 -134 91.5 -227.5t227.5 -93.5zM435 -12q-151 0 -256 106t-105 255t106 256t257 107t256 -106t105 -255t-106 -256t-257 -107z"/>
<glyph glyph-name="trademark" horiz-adv-x="700" unicode="™" d="M138 392l66 246h-92l17 62h254l-17 -62h-92l-66 -246h-70zM365 392l83 308h70l46 -130l116 130h76l-83 -308h-66l56 208l-121 -135h-6l-49 135l-56 -208h-66z"/>
<glyph glyph-name="partialdiff" d="M250 395l171 255h-340zM451 95v510l-172 -256zM50 95l170 254l-170 256v-510zM81 49h340l-171 255zM0 0v700h500v-700h-500z" unicode="∂"/>
<glyph glyph-name="Delta" horiz-adv-x="768" unicode="∆" d="M209 136h289l-42 379zM-53 0l480 701h143l106 -701h-729z"/>
<glyph glyph-name="product" d="M250 395l171 255h-340zM451 95v510l-172 -256zM50 95l170 254l-170 256v-510zM81 49h340l-171 255zM0 0v700h500v-700h-500z" unicode="∏"/>
<glyph glyph-name="summation" d="M250 395l171 255h-340zM451 95v510l-172 -256zM50 95l170 254l-170 256v-510zM81 49h340l-171 255zM0 0v700h500v-700h-500z" unicode="∑"/>
<glyph glyph-name="minus" horiz-adv-x="640" unicode="−" d="M88 285l36 135h481l-37 -135h-480z"/>
<glyph glyph-name="radical" horiz-adv-x="564" unicode="√" d="M657 794l-414 -945h-19l-146 348l-89 -6l-3 96l153 12l90 -230l317 725h111z"/>
<glyph glyph-name="infinity" horiz-adv-x="842" unicode="∞" d="M645 271q36 0 55.5 23t19.5 59t-21 60t-57 24q-55 0 -125 -85q68 -81 128 -81zM259 271q62 0 126 81q-75 85 -128 85q-34 0 -54.5 -24.5t-20.5 -59.5q0 -36 20.5 -59t56.5 -23zM261 158q-85 0 -136 55.5t-51 141.5q0 85 49 139.5t133 54.5q61 0 103.5 -31t91.5 -91 q34 41 55 62.5t58.5 40.5t80.5 19q85 0 134.5 -54t49.5 -140t-49 -141.5t-134 -55.5q-100 0 -195 114q-46 -55 -89.5 -84.5t-100.5 -29.5z"/>
<glyph glyph-name="integral" d="M250 395l171 255h-340zM451 95v510l-172 -256zM50 95l170 254l-170 256v-510zM81 49h340l-171 255zM0 0v700h500v-700h-500z" unicode="∫"/>
<glyph glyph-name="approxequal" horiz-adv-x="640" unicode="≈" d="M604 315q-28 -69 -78.5 -121t-113.5 -52q-41 0 -126.5 32t-109.5 32q-23 0 -47.5 -18.5t-38.5 -43.5l-77 18q28 69 79.5 121.5t112.5 52.5q43 0 124.5 -31.5t110.5 -31.5q25 0 48.5 17.5t38.5 42.5zM664 541q-27 -69 -77.5 -121t-113.5 -52q-41 0 -127 31.5t-110 31.5 t-47.5 -18.5t-37.5 -43.5l-77 19q28 69 79.5 121.5t113.5 52.5q41 0 123 -32t111 -32q25 0 48.5 18t38.5 43z"/>
<glyph glyph-name="notequal" horiz-adv-x="640" unicode="≠" d="M118 412l37 135h270l108 139l96 -55l-66 -84h73l-37 -135h-138l-95 -122h201l-36 -134h-268l-105 -137l-96 55l62 82h-75l37 134h141l96 122h-205z"/>
<glyph glyph-name="lessequal" horiz-adv-x="640" unicode="≤" d="M493 -10h-493l34 126h493zM534 145l-444 175l37 143l539 175l-38 -148l-384 -103l328 -104z"/>
<glyph glyph-name="greaterequal" horiz-adv-x="640" unicode="≥" d="M503 -10h-493l34 126h493zM591 320l-538 -175l38 151l384 103l-328 103l38 136l444 -175z"/>
<glyph glyph-name="lozenge" horiz-adv-x="640" unicode="◊" d="M456 356l-115 260q-76 -174 -115 -260q39 -87 115 -261zM587 356l-188 -391h-117q-31 65 -93 195.5t-94 195.5l188 391h116z"/>
<glyph glyph-name="cyrBreve" d="M358 588q-67 0 -108.5 38t-42.5 104l90 16q11 -64 66 -64q58 0 88 64l86 -16q-20 -67 -66.5 -104.5t-112.5 -37.5z" unicode=""/>
<glyph glyph-name="cyrbreve" d="M356 588q-64 0 -102.5 37t-39.5 102l84 15q11 -62 64 -62q56 0 84 62l81 -15q-20 -66 -64 -102.5t-107 -36.5z" unicode=""/>
<glyph glyph-name="uniF8FF" d="M250 395l171 255h-340zM451 95v510l-172 -256zM50 95l170 254l-170 256v-510zM81 49h340l-171 255zM0 0v700h500v-700h-500z" unicode=""/>
<glyph glyph-name="ff" horiz-adv-x="822" unicode="ﬀ" d="M23 0l110 406h-64l35 130h63l7 29q45 172 217 172q62 0 104 -15l-33 -126q-33 13 -66 13q-59 0 -75 -58l-4 -15h129l-35 -130h-126l-110 -406h-152zM434 0l110 406h-64l35 130h63l7 29q42 172 217 172q62 0 104 -15l-33 -126q-32 13 -66 13q-60 0 -75 -58l-4 -15h129 l-35 -130h-126l-110 -406h-152z"/>
<glyph glyph-name="nbspace" horiz-adv-x="300"/>
<glyph glyph-name="apple" d="M250 395l171 255h-340zM451 95v510l-172 -256zM50 95l170 254l-170 256v-510zM81 49h340l-171 255zM0 0v700h500v-700h-500z"/>
</font>
</defs>
</svg>
