<?xml version="1.0" standalone="no"?>
<!DOCTYPE svg PUBLIC "-//W3C//DTD SVG 20010904//EN"
 "http://www.w3.org/TR/2001/REC-SVG-20010904/DTD/svg10.dtd">
<svg version="1.0" xmlns="http://www.w3.org/2000/svg"
 width="700.000000pt" height="700.000000pt" viewBox="0 0 700.000000 700.000000"
 preserveAspectRatio="xMidYMid meet">
<metadata>
Created by potrace 1.11, written by Peter Selinger 2001-2013
</metadata>
<g transform="translate(0.000000,700.000000) scale(0.100000,-0.100000)"
fill="#000000" stroke="none">
<path d="M1780 6995 c-8 -2 -55 -9 -105 -15 -552 -73 -1060 -399 -1370 -880
-103 -159 -193 -367 -241 -555 -63 -246 -58 -34 -61 -2713 -2 -1549 0 -2443 6
-2440 5 1 289 298 630 658 l621 655 0 567 0 568 539 0 538 0 595 628 596 627
-1134 3 -1134 2 0 588 c0 644 1 656 60 772 39 77 133 171 210 210 126 64 10
60 1860 60 l1687 0 77 80 c43 44 81 80 85 80 6 0 867 915 994 1056 l49 54
-2244 -1 c-1234 -1 -2250 -3 -2258 -4z"/>
<path d="M6368 5957 l-618 -652 0 -602 0 -603 -572 0 -573 0 -595 -628 -594
-627 1167 -3 1167 -2 0 -604 c0 -573 -1 -607 -20 -667 -24 -79 -86 -175 -148
-230 -57 -50 -167 -105 -241 -119 -35 -6 -649 -10 -1766 -10 l-1712 0 -44 -47
c-24 -27 -52 -52 -62 -58 -9 -5 -236 -244 -503 -530 -268 -286 -498 -532 -512
-548 l-26 -27 2279 3 c2059 2 2288 4 2365 19 440 84 778 258 1069 549 247 247
424 554 507 884 63 246 58 35 61 2713 2 1343 0 2442 -4 2442 -5 0 -286 -294
-625 -653z"/>
</g>
</svg>
